<?xml version="1.0" encoding="UTF-8" standalone="no"?>
<!-- Created with Inkscape (http://www.inkscape.org/) -->

<svg
   width="62.5pc"
   height="15.625pc"
   viewBox="0 0 264.583 66.14575"
   version="1.1"
   id="svg1"
   inkscape:version="1.3.2 (091e20e, 2023-11-25, custom)"
   sodipodi:docname="Banner.svg"
   xmlns:inkscape="http://www.inkscape.org/namespaces/inkscape"
   xmlns:sodipodi="http://sodipodi.sourceforge.net/DTD/sodipodi-0.dtd"
   xmlns:xlink="http://www.w3.org/1999/xlink"
   xmlns="http://www.w3.org/2000/svg"
   xmlns:svg="http://www.w3.org/2000/svg">
  <sodipodi:namedview
     id="namedview1"
     pagecolor="#ffffff"
     bordercolor="#000000"
     borderopacity="0.25"
     inkscape:showpageshadow="2"
     inkscape:pageopacity="0.0"
     inkscape:pagecheckerboard="0"
     inkscape:deskcolor="#d1d1d1"
     inkscape:document-units="pc"
     inkscape:zoom="1.3682516"
     inkscape:cx="492.23403"
     inkscape:cy="281.01557"
     inkscape:window-width="2560"
     inkscape:window-height="1369"
     inkscape:window-x="-8"
     inkscape:window-y="-8"
     inkscape:window-maximized="1"
     inkscape:current-layer="svg1" />
  <defs
     id="defs1">
    <linearGradient
       id="swatch88">
      <stop
         style="stop-color:#ffffff;stop-opacity:1;"
         offset="0"
         id="stop89" />
    </linearGradient>
    <linearGradient
       id="swatch80">
      <stop
         style="stop-color:#ffffff;stop-opacity:1;"
         offset="0"
         id="stop81" />
    </linearGradient>
    <linearGradient
       id="swatch63"
       inkscape:swatch="solid">
      <stop
         style="stop-color:#ffffff;stop-opacity:1;"
         offset="0"
         id="stop64" />
    </linearGradient>
    <inkscape:path-effect
       effect="bspline"
       id="path-effect6"
       is_visible="true"
       lpeversion="1.3"
       weight="33.333333"
       steps="2"
       helper_size="0"
       apply_no_weight="true"
       apply_with_weight="true"
       only_selected="false"
       uniform="false" />
    <rect
       x="532.07245"
       y="157.89919"
       width="15.311436"
       height="51.676098"
       id="rect5" />
    <rect
       x="206.70439"
       y="57.417889"
       width="843.49978"
       height="140.13719"
       id="rect2" />
    <filter
       inkscape:collect="always"
       style="color-interpolation-filters:sRGB"
       id="filter68"
       x="-0.20297337"
       y="-0.19067196"
       width="1.4059467"
       height="1.3813439">
      <feGaussianBlur
         inkscape:collect="always"
         stdDeviation="0.32559362"
         id="feGaussianBlur68" />
    </filter>
    <filter
       inkscape:collect="always"
       style="color-interpolation-filters:sRGB"
       id="filter69"
       x="-0.030826866"
       y="-0.024040353"
       width="1.0616537"
       height="1.0480807">
      <feGaussianBlur
         inkscape:collect="always"
         stdDeviation="0.33985434"
         id="feGaussianBlur69" />
    </filter>
    <filter
       inkscape:collect="always"
       style="color-interpolation-filters:sRGB"
       id="filter70"
       x="-0.026807143"
       y="-0.027195652"
       width="1.0536143"
       height="1.0543913">
      <feGaussianBlur
         inkscape:collect="always"
         stdDeviation="0.39593667"
         id="feGaussianBlur70" />
    </filter>
    <filter
       inkscape:collect="always"
       style="color-interpolation-filters:sRGB"
       id="filter71"
       x="-0.024073699"
       y="-0.030736162"
       width="1.0481474"
       height="1.0614723">
      <feGaussianBlur
         inkscape:collect="always"
         stdDeviation="0.43937577"
         id="feGaussianBlur71" />
    </filter>
    <filter
       inkscape:collect="always"
       style="color-interpolation-filters:sRGB"
       id="filter72"
       x="-0.024005281"
       y="-0.030848416"
       width="1.0480106"
       height="1.0616968">
      <feGaussianBlur
         inkscape:collect="always"
         stdDeviation="0.35961873"
         id="feGaussianBlur72" />
    </filter>
    <filter
       inkscape:collect="always"
       style="color-interpolation-filters:sRGB"
       id="filter73"
       x="-0.022663213"
       y="-0.033389313"
       width="1.0453264"
       height="1.0667786">
      <feGaussianBlur
         inkscape:collect="always"
         stdDeviation="0.46145138"
         id="feGaussianBlur73" />
    </filter>
    <filter
       inkscape:collect="always"
       style="color-interpolation-filters:sRGB"
       id="filter74"
       x="-0.026897338"
       y="-0.027103447"
       width="1.0537947"
       height="1.0542069">
      <feGaussianBlur
         inkscape:collect="always"
         stdDeviation="0.37314896"
         id="feGaussianBlur74" />
    </filter>
    <filter
       inkscape:collect="always"
       style="color-interpolation-filters:sRGB"
       id="filter68-5"
       x="-0.20297337"
       y="-0.19067196"
       width="1.4059467"
       height="1.3813439">
      <feGaussianBlur
         inkscape:collect="always"
         stdDeviation="0.32559362"
         id="feGaussianBlur68-2" />
    </filter>
    <filter
       inkscape:collect="always"
       style="color-interpolation-filters:sRGB"
       id="filter68-6"
       x="-0.20297337"
       y="-0.19067196"
       width="1.4059467"
       height="1.3813439">
      <feGaussianBlur
         inkscape:collect="always"
         stdDeviation="0.32559362"
         id="feGaussianBlur68-20" />
    </filter>
    <filter
       inkscape:collect="always"
       style="color-interpolation-filters:sRGB"
       id="filter68-5-2"
       x="-0.20297337"
       y="-0.19067196"
       width="1.4059467"
       height="1.3813439">
      <feGaussianBlur
         inkscape:collect="always"
         stdDeviation="0.32559362"
         id="feGaussianBlur68-2-8" />
    </filter>
    <filter
       inkscape:collect="always"
       style="color-interpolation-filters:sRGB"
       id="filter68-5-4"
       x="-0.20297337"
       y="-0.19067196"
       width="1.4059467"
       height="1.3813439">
      <feGaussianBlur
         inkscape:collect="always"
         stdDeviation="0.32559362"
         id="feGaussianBlur68-2-5" />
    </filter>
    <filter
       inkscape:collect="always"
       style="color-interpolation-filters:sRGB"
       id="filter68-5-47"
       x="-0.20297337"
       y="-0.19067196"
       width="1.4059467"
       height="1.3813439">
      <feGaussianBlur
         inkscape:collect="always"
         stdDeviation="0.32559362"
         id="feGaussianBlur68-2-1" />
    </filter>
    <filter
       inkscape:collect="always"
       style="color-interpolation-filters:sRGB"
       id="filter68-5-8"
       x="-0.20297337"
       y="-0.19067196"
       width="1.4059467"
       height="1.3813439">
      <feGaussianBlur
         inkscape:collect="always"
         stdDeviation="0.32559362"
         id="feGaussianBlur68-2-0" />
    </filter>
    <filter
       inkscape:collect="always"
       style="color-interpolation-filters:sRGB"
       id="filter68-5-3"
       x="-0.20297337"
       y="-0.19067196"
       width="1.4059467"
       height="1.3813439">
      <feGaussianBlur
         inkscape:collect="always"
         stdDeviation="0.32559362"
         id="feGaussianBlur68-2-9" />
    </filter>
    <filter
       inkscape:collect="always"
       style="color-interpolation-filters:sRGB"
       id="filter68-5-7"
       x="-0.20297337"
       y="-0.19067196"
       width="1.4059467"
       height="1.3813439">
      <feGaussianBlur
         inkscape:collect="always"
         stdDeviation="0.32559362"
         id="feGaussianBlur68-2-4" />
    </filter>
    <filter
       inkscape:collect="always"
       style="color-interpolation-filters:sRGB"
       id="filter68-5-6"
       x="-0.20297337"
       y="-0.19067196"
       width="1.4059467"
       height="1.3813439">
      <feGaussianBlur
         inkscape:collect="always"
         stdDeviation="0.32559362"
         id="feGaussianBlur68-2-85" />
    </filter>
    <filter
       inkscape:collect="always"
       style="color-interpolation-filters:sRGB"
       id="filter68-5-79"
       x="-0.20297337"
       y="-0.19067196"
       width="1.4059467"
       height="1.3813439">
      <feGaussianBlur
         inkscape:collect="always"
         stdDeviation="0.32559362"
         id="feGaussianBlur68-2-3" />
    </filter>
    <filter
       inkscape:collect="always"
       style="color-interpolation-filters:sRGB"
       id="filter68-5-1"
       x="-0.20297337"
       y="-0.19067196"
       width="1.4059467"
       height="1.3813439">
      <feGaussianBlur
         inkscape:collect="always"
         stdDeviation="0.32559362"
         id="feGaussianBlur68-2-86" />
    </filter>
    <filter
       inkscape:collect="always"
       style="color-interpolation-filters:sRGB"
       id="filter68-5-76"
       x="-0.20297337"
       y="-0.19067196"
       width="1.4059467"
       height="1.3813439">
      <feGaussianBlur
         inkscape:collect="always"
         stdDeviation="0.32559362"
         id="feGaussianBlur68-2-7" />
    </filter>
    <filter
       inkscape:collect="always"
       style="color-interpolation-filters:sRGB"
       id="filter68-5-89"
       x="-0.20297337"
       y="-0.19067196"
       width="1.4059467"
       height="1.3813439">
      <feGaussianBlur
         inkscape:collect="always"
         stdDeviation="0.32559362"
         id="feGaussianBlur68-2-58" />
    </filter>
    <filter
       inkscape:collect="always"
       style="color-interpolation-filters:sRGB"
       id="filter68-5-891"
       x="-0.20297337"
       y="-0.19067196"
       width="1.4059467"
       height="1.3813439">
      <feGaussianBlur
         inkscape:collect="always"
         stdDeviation="0.32559362"
         id="feGaussianBlur68-2-6" />
    </filter>
    <filter
       inkscape:collect="always"
       style="color-interpolation-filters:sRGB"
       id="filter68-5-32"
       x="-0.20297337"
       y="-0.19067196"
       width="1.4059467"
       height="1.3813439">
      <feGaussianBlur
         inkscape:collect="always"
         stdDeviation="0.32559362"
         id="feGaussianBlur68-2-94" />
    </filter>
    <filter
       inkscape:collect="always"
       style="color-interpolation-filters:sRGB"
       id="filter68-5-5"
       x="-0.20297337"
       y="-0.19067196"
       width="1.4059467"
       height="1.3813439">
      <feGaussianBlur
         inkscape:collect="always"
         stdDeviation="0.32559362"
         id="feGaussianBlur68-2-66" />
    </filter>
    <filter
       inkscape:collect="always"
       style="color-interpolation-filters:sRGB"
       id="filter68-8"
       x="-0.20297337"
       y="-0.19067196"
       width="1.4059467"
       height="1.3813439">
      <feGaussianBlur
         inkscape:collect="always"
         stdDeviation="0.32559362"
         id="feGaussianBlur68-9" />
    </filter>
    <filter
       inkscape:collect="always"
       style="color-interpolation-filters:sRGB"
       id="filter68-88"
       x="-0.20297337"
       y="-0.19067196"
       width="1.4059467"
       height="1.3813439">
      <feGaussianBlur
         inkscape:collect="always"
         stdDeviation="0.32559362"
         id="feGaussianBlur68-6" />
    </filter>
    <filter
       inkscape:collect="always"
       style="color-interpolation-filters:sRGB"
       id="filter68-9"
       x="-0.20297337"
       y="-0.19067196"
       width="1.4059467"
       height="1.3813439">
      <feGaussianBlur
         inkscape:collect="always"
         stdDeviation="0.32559362"
         id="feGaussianBlur68-3" />
    </filter>
    <filter
       inkscape:collect="always"
       style="color-interpolation-filters:sRGB"
       id="filter68-5-3-0"
       x="-0.20297337"
       y="-0.19067196"
       width="1.4059467"
       height="1.3813439">
      <feGaussianBlur
         inkscape:collect="always"
         stdDeviation="0.32559362"
         id="feGaussianBlur68-2-9-2" />
    </filter>
    <filter
       inkscape:collect="always"
       style="color-interpolation-filters:sRGB"
       id="filter68-6-9"
       x="-0.20297337"
       y="-0.19067196"
       width="1.4059467"
       height="1.3813439">
      <feGaussianBlur
         inkscape:collect="always"
         stdDeviation="0.32559362"
         id="feGaussianBlur68-20-7" />
    </filter>
    <filter
       inkscape:collect="always"
       style="color-interpolation-filters:sRGB"
       id="filter68-6-2"
       x="-0.20297337"
       y="-0.19067196"
       width="1.4059467"
       height="1.3813439">
      <feGaussianBlur
         inkscape:collect="always"
         stdDeviation="0.32559362"
         id="feGaussianBlur68-20-2" />
    </filter>
    <filter
       inkscape:collect="always"
       style="color-interpolation-filters:sRGB"
       id="filter68-6-96"
       x="-0.20297337"
       y="-0.19067196"
       width="1.4059467"
       height="1.3813439">
      <feGaussianBlur
         inkscape:collect="always"
         stdDeviation="0.32559362"
         id="feGaussianBlur68-20-8" />
    </filter>
    <filter
       inkscape:collect="always"
       style="color-interpolation-filters:sRGB"
       id="filter68-6-91"
       x="-0.20297337"
       y="-0.19067196"
       width="1.4059467"
       height="1.3813439">
      <feGaussianBlur
         inkscape:collect="always"
         stdDeviation="0.32559362"
         id="feGaussianBlur68-20-6" />
    </filter>
    <filter
       inkscape:collect="always"
       style="color-interpolation-filters:sRGB"
       id="filter68-6-1"
       x="-0.20297337"
       y="-0.19067196"
       width="1.4059467"
       height="1.3813439">
      <feGaussianBlur
         inkscape:collect="always"
         stdDeviation="0.32559362"
         id="feGaussianBlur68-20-3" />
    </filter>
    <filter
       inkscape:collect="always"
       style="color-interpolation-filters:sRGB"
       id="filter68-6-9-2"
       x="-0.20297337"
       y="-0.19067196"
       width="1.4059467"
       height="1.3813439">
      <feGaussianBlur
         inkscape:collect="always"
         stdDeviation="0.32559362"
         id="feGaussianBlur68-20-7-7" />
    </filter>
    <filter
       inkscape:collect="always"
       style="color-interpolation-filters:sRGB"
       id="filter68-5-8-1"
       x="-0.20297337"
       y="-0.19067196"
       width="1.4059467"
       height="1.3813439">
      <feGaussianBlur
         inkscape:collect="always"
         stdDeviation="0.32559362"
         id="feGaussianBlur68-2-0-6" />
    </filter>
    <linearGradient
       inkscape:collect="always"
       xlink:href="#swatch88"
       id="linearGradient89"
       x1="206.20508"
       y1="116.08854"
       x2="899.03827"
       y2="116.08854"
       gradientUnits="userSpaceOnUse" />
    <filter
       inkscape:collect="always"
       style="color-interpolation-filters:sRGB"
       id="filter74-1"
       x="-0.026897338"
       y="-0.027103447"
       width="1.0537947"
       height="1.0542069">
      <feGaussianBlur
         inkscape:collect="always"
         stdDeviation="0.37314896"
         id="feGaussianBlur74-4" />
    </filter>
  </defs>
  <g
     inkscape:label="Layer 1"
     inkscape:groupmode="layer"
     id="layer1">
    <rect
       style="fill:#233984;fill-opacity:1;stroke-width:0.264583"
       id="rect6"
       width="138.62531"
       height="65.957802"
       x="0.12659846"
       y="0.12659846"
       ry="0" />
    <ellipse
       style="fill:#ffffff;fill-opacity:1;stroke-width:0.283706;filter:url(#filter74)"
       id="path6"
       cx="137.80243"
       cy="16.521099"
       rx="16.647697"
       ry="16.521099"
       transform="matrix(1,0,0,1.0117763,0,-0.39966039)" />
    <ellipse
       style="fill:#ffffff;fill-opacity:1;stroke-width:0.283706;filter:url(#filter74-1)"
       id="path6-9"
       cx="137.80243"
       cy="16.521099"
       rx="16.647697"
       ry="16.521099"
       transform="matrix(1,0,0,1.0117763,-125.5658,55.570602)" />
    <ellipse
       style="fill:#ffffff;fill-opacity:1;stroke-width:0.344362;filter:url(#filter73)"
       id="path6-0"
       cx="110.39687"
       cy="22.58007"
       rx="24.433502"
       ry="16.584398" />
    <ellipse
       style="fill:#ffffff;fill-opacity:1;stroke-width:0.271285;filter:url(#filter72)"
       id="path6-0-0"
       cx="84.809296"
       cy="22.158401"
       rx="17.97698"
       ry="13.989129" />
    <ellipse
       style="fill:#ffffff;fill-opacity:1;stroke-width:0.331584;filter:url(#filter71)"
       id="path6-0-0-1"
       cx="58.624977"
       cy="30.033575"
       rx="21.901533"
       ry="17.154091" />
    <ellipse
       style="fill:#ffffff;fill-opacity:1;stroke-width:0.301026;filter:url(#filter70)"
       id="path6-0-0-1-7"
       cx="38.888355"
       cy="29.671532"
       rx="17.723783"
       ry="17.470587" />
    <ellipse
       style="mix-blend-mode:normal;fill:#ffffff;fill-opacity:1;stroke-width:0.256278;filter:url(#filter69)"
       id="path6-0-0-1-7-9"
       ry="16.964193"
       rx="13.229538"
       cy="49.280216"
       cx="25.417753"
       transform="matrix(1,0,0,1.008222,0,-0.25996874)" />
    <rect
       style="fill:#ffffff;fill-opacity:1;stroke-width:0.264583"
       id="rect7"
       width="117.98977"
       height="34.941177"
       x="23.927111"
       y="31.269821" />
  </g>
  <g
     inkscape:groupmode="layer"
     id="layer3"
     inkscape:label="Stars">
    <ellipse
       style="opacity:0.643979;fill:#ffffff;fill-opacity:1;stroke:#ffffff;stroke-width:0.264583;stroke-linecap:round;stroke-linejoin:round;stroke-opacity:1;paint-order:normal;filter:url(#filter68)"
       id="path58"
       cx="9.0759182"
       cy="11.108924"
       rx="2.2508278"
       ry="2.3960423"
       transform="matrix(0.28805004,0,0,0.26076081,4.2054626,5.7680034)" />
    <ellipse
       style="opacity:0.643979;fill:#ffffff;fill-opacity:1;stroke:#ffffff;stroke-width:0.264583;stroke-linecap:round;stroke-linejoin:round;stroke-opacity:1;paint-order:normal;filter:url(#filter68-8)"
       id="path58-1"
       cx="9.0759182"
       cy="11.108924"
       rx="2.2508278"
       ry="2.3960423"
       transform="matrix(0.28805004,0,0,0.26076081,53.432851,3.084211)" />
    <ellipse
       style="opacity:0.643979;fill:#ffffff;fill-opacity:1;stroke:#ffffff;stroke-width:0.264583;stroke-linecap:round;stroke-linejoin:round;stroke-opacity:1;paint-order:normal;filter:url(#filter68-88)"
       id="path58-4"
       cx="9.0759182"
       cy="11.108924"
       rx="2.2508278"
       ry="2.3960423"
       transform="matrix(0.28805004,0,0,0.26076081,5.7509123,40.134833)" />
    <ellipse
       style="opacity:0.643979;fill:#ffffff;fill-opacity:1;stroke:#ffffff;stroke-width:0.264583;stroke-linecap:round;stroke-linejoin:round;stroke-opacity:1;paint-order:normal;filter:url(#filter68-9)"
       id="path58-6"
       cx="9.0759182"
       cy="11.108924"
       rx="2.2508278"
       ry="2.3960423"
       transform="matrix(0.28805004,0,0,0.26076081,84.851033,-0.97725052)" />
    <ellipse
       style="opacity:0.643979;fill:#ffffff;fill-opacity:1;stroke:#ffffff;stroke-width:0.264583;stroke-linecap:round;stroke-linejoin:round;stroke-opacity:1;paint-order:normal;filter:url(#filter68-6)"
       id="path58-9"
       cx="9.0759182"
       cy="11.108924"
       rx="2.2508278"
       ry="2.3960423"
       transform="matrix(0.17507447,0,0,0.15187055,7.432354,8.604497)" />
    <ellipse
       style="opacity:0.643979;fill:#ffffff;fill-opacity:1;stroke:#ffffff;stroke-width:0.264583;stroke-linecap:round;stroke-linejoin:round;stroke-opacity:1;paint-order:normal;filter:url(#filter68-6-9)"
       id="path58-9-2"
       cx="9.0759182"
       cy="11.108924"
       rx="2.2508278"
       ry="2.3960423"
       transform="matrix(0.17507447,0,0,0.15187055,16.972395,7.2254071)" />
    <ellipse
       style="opacity:0.643979;fill:#ffffff;fill-opacity:1;stroke:#ffffff;stroke-width:0.264583;stroke-linecap:round;stroke-linejoin:round;stroke-opacity:1;paint-order:normal;filter:url(#filter68-6-9-2)"
       id="path58-9-2-0"
       cx="9.0759182"
       cy="11.108924"
       rx="2.2508278"
       ry="2.3960423"
       transform="matrix(0.17507447,0,0,0.15187055,34.576481,3.2724324)" />
    <ellipse
       style="opacity:0.643979;fill:#ffffff;fill-opacity:1;stroke:#ffffff;stroke-width:0.264583;stroke-linecap:round;stroke-linejoin:round;stroke-opacity:1;paint-order:normal;filter:url(#filter68-6-2)"
       id="path58-9-28"
       cx="9.0759182"
       cy="11.108924"
       rx="2.2508278"
       ry="2.3960423"
       transform="matrix(0.17507447,0,0,0.15187055,11.861795,25.890528)" />
    <ellipse
       style="opacity:0.643979;fill:#ffffff;fill-opacity:1;stroke:#ffffff;stroke-width:0.264583;stroke-linecap:round;stroke-linejoin:round;stroke-opacity:1;paint-order:normal;filter:url(#filter68-6-96)"
       id="path58-9-3"
       cx="9.0759182"
       cy="11.108924"
       rx="2.2508278"
       ry="2.3960423"
       transform="matrix(0.17507447,0,0,0.15187055,63.385962,7.8343566)" />
    <ellipse
       style="opacity:0.643979;fill:#ffffff;fill-opacity:1;stroke:#ffffff;stroke-width:0.264583;stroke-linecap:round;stroke-linejoin:round;stroke-opacity:1;paint-order:normal;filter:url(#filter68-6-91)"
       id="path58-9-1"
       cx="9.0759182"
       cy="11.108924"
       rx="2.2508278"
       ry="2.3960423"
       transform="matrix(0.17507447,0,0,0.15187055,74.859972,2.5694112)" />
    <ellipse
       style="opacity:0.643979;fill:#ffffff;fill-opacity:1;stroke:#ffffff;stroke-width:0.264583;stroke-linecap:round;stroke-linejoin:round;stroke-opacity:1;paint-order:normal;filter:url(#filter68-6-1)"
       id="path58-9-4"
       cx="9.0759182"
       cy="11.108924"
       rx="2.2508278"
       ry="2.3960423"
       transform="matrix(0.17507447,0,0,0.15187055,7.6422539,50.223)" />
    <ellipse
       style="opacity:0.643979;fill:#ffffff;fill-opacity:1;stroke:#ffffff;stroke-width:0.264583;stroke-linecap:round;stroke-linejoin:round;stroke-opacity:1;paint-order:normal;filter:url(#filter68-5)"
       id="path58-5"
       cx="9.0759182"
       cy="11.108924"
       rx="2.2508278"
       ry="2.3960423"
       transform="matrix(0.10481537,0,0,0.09511409,13.668658,13.280322)" />
    <ellipse
       style="opacity:0.643979;fill:#ffffff;fill-opacity:1;stroke:#ffffff;stroke-width:0.264583;stroke-linecap:round;stroke-linejoin:round;stroke-opacity:1;paint-order:normal;filter:url(#filter68-5-2)"
       id="path58-5-7"
       cx="9.0759182"
       cy="11.108924"
       rx="2.2508278"
       ry="2.3960423"
       transform="matrix(0.10481537,0,0,0.09511409,19.224147,16.985272)" />
    <ellipse
       style="opacity:0.643979;fill:#ffffff;fill-opacity:1;stroke:#ffffff;stroke-width:0.264583;stroke-linecap:round;stroke-linejoin:round;stroke-opacity:1;paint-order:normal;filter:url(#filter68-5-4)"
       id="path58-5-0"
       cx="9.0759182"
       cy="11.108924"
       rx="2.2508278"
       ry="2.3960423"
       transform="matrix(0.10481537,0,0,0.09511409,19.224147,16.985272)" />
    <ellipse
       style="opacity:0.643979;fill:#ffffff;fill-opacity:1;stroke:#ffffff;stroke-width:0.264583;stroke-linecap:round;stroke-linejoin:round;stroke-opacity:1;paint-order:normal;filter:url(#filter68-5-47)"
       id="path58-5-6"
       cx="9.0759182"
       cy="11.108924"
       rx="2.2508278"
       ry="2.3960423"
       transform="matrix(0.10481537,0,0,0.09511409,36.800238,7.5759708)" />
    <ellipse
       style="opacity:0.643979;fill:#ffffff;fill-opacity:1;stroke:#ffffff;stroke-width:0.264583;stroke-linecap:round;stroke-linejoin:round;stroke-opacity:1;paint-order:normal;filter:url(#filter68-5-8)"
       id="path58-5-9"
       cx="9.0759182"
       cy="11.108924"
       rx="2.2508278"
       ry="2.3960423"
       transform="matrix(0.10481537,0,0,0.09511409,43.840836,6.9102264)" />
    <ellipse
       style="opacity:0.643979;fill:#ffffff;fill-opacity:1;stroke:#ffffff;stroke-width:0.264583;stroke-linecap:round;stroke-linejoin:round;stroke-opacity:1;paint-order:normal;filter:url(#filter68-5-8-1)"
       id="path58-5-9-3"
       cx="9.0759182"
       cy="11.108924"
       rx="2.2508278"
       ry="2.3960423"
       transform="matrix(0.10481537,0,0,0.09511409,34.250018,3.0847343)" />
    <ellipse
       style="opacity:0.643979;fill:#ffffff;fill-opacity:1;stroke:#ffffff;stroke-width:0.264583;stroke-linecap:round;stroke-linejoin:round;stroke-opacity:1;paint-order:normal;filter:url(#filter68-5-3)"
       id="path58-5-8"
       cx="9.0759182"
       cy="11.108924"
       rx="2.2508278"
       ry="2.3960423"
       transform="matrix(0.10481537,0,0,0.09511409,25.11892,10.431459)" />
    <ellipse
       style="opacity:0.643979;fill:#ffffff;fill-opacity:1;stroke:#ffffff;stroke-width:0.264583;stroke-linecap:round;stroke-linejoin:round;stroke-opacity:1;paint-order:normal;filter:url(#filter68-5-3-0)"
       id="path58-5-8-3"
       cx="9.0759182"
       cy="11.108924"
       rx="2.2508278"
       ry="2.3960423"
       transform="matrix(0.10481537,0,0,0.09511409,22.424001,5.1189137)" />
    <ellipse
       style="opacity:0.643979;fill:#ffffff;fill-opacity:1;stroke:#ffffff;stroke-width:0.264583;stroke-linecap:round;stroke-linejoin:round;stroke-opacity:1;paint-order:normal;filter:url(#filter68-5-7)"
       id="path58-5-97"
       cx="9.0759182"
       cy="11.108924"
       rx="2.2508278"
       ry="2.3960423"
       transform="matrix(0.10481537,0,0,0.09511409,8.623287,29.605491)" />
    <ellipse
       style="opacity:0.643979;fill:#ffffff;fill-opacity:1;stroke:#ffffff;stroke-width:0.264583;stroke-linecap:round;stroke-linejoin:round;stroke-opacity:1;paint-order:normal;filter:url(#filter68-5-6)"
       id="path58-5-95"
       cx="9.0759182"
       cy="11.108924"
       rx="2.2508278"
       ry="2.3960423"
       transform="matrix(0.10481537,0,0,0.09511409,15.774124,27.603277)" />
    <ellipse
       style="opacity:0.643979;fill:#ffffff;fill-opacity:1;stroke:#ffffff;stroke-width:0.264583;stroke-linecap:round;stroke-linejoin:round;stroke-opacity:1;paint-order:normal;filter:url(#filter68-5-79)"
       id="path58-5-66"
       cx="9.0759182"
       cy="11.108924"
       rx="2.2508278"
       ry="2.3960423"
       transform="matrix(0.10481537,0,0,0.09511409,4.3650989,57.413462)" />
    <ellipse
       style="opacity:0.643979;fill:#ffffff;fill-opacity:1;stroke:#ffffff;stroke-width:0.264583;stroke-linecap:round;stroke-linejoin:round;stroke-opacity:1;paint-order:normal;filter:url(#filter68-5-1)"
       id="path58-5-2"
       cx="9.0759182"
       cy="11.108924"
       rx="2.2508278"
       ry="2.3960423"
       transform="matrix(0.10481537,0,0,0.09511409,2.368728,24.447289)" />
    <ellipse
       style="opacity:0.643979;fill:#ffffff;fill-opacity:1;stroke:#ffffff;stroke-width:0.264583;stroke-linecap:round;stroke-linejoin:round;stroke-opacity:1;paint-order:normal;filter:url(#filter68-5-76)"
       id="path58-5-1"
       cx="9.0759182"
       cy="11.108924"
       rx="2.2508278"
       ry="2.3960423"
       transform="matrix(0.10481537,0,0,0.09511409,9.2497625,40.483481)" />
    <ellipse
       style="opacity:0.643979;fill:#ffffff;fill-opacity:1;stroke:#ffffff;stroke-width:0.264583;stroke-linecap:round;stroke-linejoin:round;stroke-opacity:1;paint-order:normal;filter:url(#filter68-5-89)"
       id="path58-5-78"
       cx="9.0759182"
       cy="11.108924"
       rx="2.2508278"
       ry="2.3960423"
       transform="matrix(0.10481537,0,0,0.09511409,52.8235,3.7922617)" />
    <ellipse
       style="opacity:0.643979;fill:#ffffff;fill-opacity:1;stroke:#ffffff;stroke-width:0.264583;stroke-linecap:round;stroke-linejoin:round;stroke-opacity:1;paint-order:normal;filter:url(#filter68-5-891)"
       id="path58-5-3"
       cx="9.0759182"
       cy="11.108924"
       rx="2.2508278"
       ry="2.3960423"
       transform="matrix(0.10481537,0,0,0.09511409,110.17583,2.9813671)" />
    <ellipse
       style="opacity:0.643979;fill:#ffffff;fill-opacity:1;stroke:#ffffff;stroke-width:0.264583;stroke-linecap:round;stroke-linejoin:round;stroke-opacity:1;paint-order:normal;filter:url(#filter68-5-32)"
       id="path58-5-29"
       cx="9.0759182"
       cy="11.108924"
       rx="2.2508278"
       ry="2.3960423"
       transform="matrix(0.10481537,0,0,0.09511409,91.830459,1.8420069)" />
    <ellipse
       style="opacity:0.643979;fill:#ffffff;fill-opacity:1;stroke:#ffffff;stroke-width:0.264583;stroke-linecap:round;stroke-linejoin:round;stroke-opacity:1;paint-order:normal;filter:url(#filter68-5-5)"
       id="path58-5-5"
       cx="9.0759182"
       cy="11.108924"
       rx="2.2508278"
       ry="2.3960423"
       transform="matrix(0.10481537,0,0,0.09511409,84.71343,4.014847)" />
  </g>
  <g
     id="text2"
     style="font-size:12px;font-family:'Californian FB';-inkscape-font-specification:'Californian FB, Normal';white-space:pre;fill:#efbe0e;stroke:#000000;stroke-width:1.008"
     transform="matrix(0.26458333,0,0,0.26458333,-20.297462,6.2743132)"
     aria-label="Welcome to the home of children's author  &#10;                                      H. Curtis">
    <path
       style="font-size:37.3333px"
       d="m 246.9915,77.593991 q 0,0.182291 -0.18229,0.182291 h -1.27604 q -0.32812,0 -0.5651,0.382812 -0.12761,0.200521 -2.11459,5.085933 -1.93229,4.721351 -2.09635,5.177079 -2.40625,5.395829 -5.63281,12.924464 -0.27343,0.67448 -0.49218,0.67448 -0.21875,0 -0.45573,-0.60156 -1.78646,-4.320308 -4.17448,-10.390615 -1.4401,-4.101559 -2.73437,-6.890619 -0.18229,-0.419271 -0.25521,-0.419271 -0.0911,0 -0.18229,0.255208 -0.0911,0.382813 -3.0625,7.401036 -3.51822,8.312493 -4.37499,9.971341 -0.25521,0.51042 -0.4375,0.51042 -0.3099,0 -0.52865,-0.67448 -2.16927,-5.341139 -4.48437,-11.083322 -1.95052,-4.739579 -4.10156,-9.934887 -0.27344,-0.747395 -1.14843,-2.078123 -0.38282,-0.309896 -0.83855,-0.309896 h -0.78385 q -0.18229,0 -0.18229,-0.21875 v -0.565103 q 0,-0.182292 0.14583,-0.182292 h 7.6927 q 0.27344,0 0.27344,0.21875 v 0.565104 q 0,0.182291 -0.20052,0.182291 h -2.22396 q -0.38281,0 -0.38281,0.309896 0,0.346354 0.14584,0.710937 3.29947,7.838535 3.66406,8.80468 2.89843,7.856764 3.70051,9.406242 0.20052,0.401041 0.4375,0.03646 1.44011,-3.281247 3.02604,-6.945307 2.71615,-6.070307 3.09896,-7.692702 0.0911,-0.382812 -0.0729,-0.966145 -0.5651,-1.166665 -1.23958,-2.643226 -0.60156,-1.020833 -1.07552,-1.020833 h -1.89583 q -0.20052,0 -0.20052,-0.182291 v -0.601562 q 0,-0.182292 0.20052,-0.182292 h 9.09634 q 0.20052,0 0.20052,0.182292 v 0.565103 q 0,0.21875 -0.23698,0.21875 h -2.93489 q -0.23698,0 -0.23698,0.273437 0,0.145834 0.34636,0.893229 0.78385,1.768227 3.60937,9.02343 1.53125,3.992184 3.44531,8.78645 0.18229,0.382813 0.29166,0.382813 0.0911,0 0.21875,-0.236979 0.56511,-0.984375 2.04167,-4.466142 0.76562,-1.786457 1.51302,-3.554685 1.4401,-3.153643 2.67968,-7.473952 0.41927,-1.421874 0.41927,-2.807289 0,-0.820312 -0.71093,-0.820312 h -1.78646 q -0.23698,0 -0.23698,-0.21875 v -0.528645 q 0,-0.21875 0.27344,-0.21875 h 6.79947 q 0.21875,0 0.21875,0.21875 z m 15.49478,21.546856 q 0,0.03646 -0.0365,0.109375 -0.5651,0.565104 -0.94791,0.838538 -0.67448,0.47396 -1.82292,0.98438 -1.84114,0.82031 -3.99218,0.82031 -3.20833,0 -5.10417,-1.895833 -2.3151,-2.315102 -2.3151,-5.632807 0,-2.36979 0.25521,-3.481768 0.63802,-2.716144 2.24219,-4.283851 1.85937,-1.841144 4.59374,-1.841144 1.3125,0 2.15104,0.41927 0.65625,0.309896 2.09635,1.348958 1.71354,1.221353 2.31511,2.533852 0.14583,0.328124 0.14583,0.565103 0,0.200521 -0.32812,0.328125 -0.69271,0.273437 -4.06511,0.893228 -3.84635,0.710937 -5.12239,0.710937 -0.10937,0 -0.875,0.01823 -0.74739,0.01823 -0.875,0.01823 -0.21875,0 -0.21875,0.85677 0,3.773434 2.75261,6.161453 1.47656,1.27604 4.84895,1.27604 1.73177,0 2.84375,-0.382812 0.78385,-0.255208 1.07552,-0.546874 0.0547,-0.03646 0.16406,-0.09115 0.0911,0 0.14583,0.127604 0.0365,0.05469 0.0729,0.145833 z m -3.40885,-9.752596 q 0,-0.145833 -0.18229,-0.473958 -0.78386,-1.385415 -1.96875,-2.296873 -1.1849,-0.911457 -2.73437,-0.911457 -1.14844,0 -2.20573,1.403644 -0.38281,0.528646 -0.82031,1.622395 -0.47396,1.184895 -0.47396,1.822915 0,0.291666 0.21875,0.291666 -0.18229,0 3.13541,-0.255208 3.15365,-0.255208 4.73958,-0.85677 0.29167,-0.127604 0.29167,-0.346354 z m 13.72655,12.067699 q 0,0.14583 -0.20052,0.14583 h -9.05989 q -0.23698,0 -0.23698,-0.18229 v -0.63802 q 0,-0.21875 0.20052,-0.21875 h 2.97135 q 0.38282,0 0.38282,-0.41927 V 79.909093 q 0,-4.046872 -0.71094,-4.046872 h -2.24219 q -0.21875,0 -0.21875,-0.21875 v -0.601562 q 0,-0.255208 0.14584,-0.255208 h 1.42187 q 1.27604,0 2.67969,-0.364583 1.42187,-0.382812 1.23958,-0.382812 0.32812,0 0.32812,0.528645 0,0.05469 -0.10937,10.809887 -0.10938,10.755199 -0.10938,11.138011 0,4.046871 0.67448,4.046871 h 2.64323 q 0.20052,0 0.20052,0.18229 z m 15.93227,-2.843748 q 0,0.273437 -0.89322,0.966145 -2.9349,2.278643 -6.30729,2.278643 -2.00521,0 -3.17187,-0.61979 -1.75,-0.94792 -3.02604,-3.22656 -1.03906,-1.841144 -1.03906,-4.666663 0,-1.895832 0.4375,-3.536455 0.58333,-2.15104 2.24218,-3.591143 1.80469,-1.567707 4.99479,-1.567707 2.84375,0 4.79427,1.877603 1.03906,1.002603 1.03906,1.822915 0,0.85677 -0.67448,0.85677 -0.91146,0 -1.85937,-0.929687 -0.85678,-0.85677 -1.16667,-1.914061 -0.1276,-0.437499 -0.83854,-0.546874 -0.69271,-0.109375 -1.40365,-0.109375 -0.91145,0 -1.49479,0.109375 -1.51302,0.291666 -2.38802,1.257811 -1.45833,1.622395 -1.45833,5.085933 0,3.536456 2.35156,6.01562 1.05729,1.093749 2.58854,1.421874 0.78386,0.182292 2.46094,0.182292 2.26041,0 3.84635,-1.130208 0.21875,-0.145833 0.52864,-0.364583 0.0729,-0.03646 0.21875,-0.03646 0.21875,0.20052 0.21875,0.364583 z m 17.95572,-5.450516 q 0,2.369789 -0.78385,4.229163 -0.91146,2.15104 -3.3177,3.500001 -1.65886,0.92968 -3.84636,0.92968 -2.47916,0 -3.51822,-0.4375 -2.22396,-0.98437 -3.35417,-3.244786 -1.11197,-2.278644 -1.11197,-4.830725 0,-2.807289 1.22135,-4.958329 1.11198,-1.93229 3.13541,-2.953123 1.56771,-0.783853 4.44792,-0.783853 2.33333,0 3.70051,0.85677 1.78646,1.130207 2.64323,3.20833 0.78385,1.914061 0.78385,4.484372 z m -2.57031,0.893228 q 0,-3.791663 -1.80468,-5.924474 -1.84115,-2.205727 -4.8125,-2.205727 -1.54948,0 -2.11458,0.255208 -0.38281,0.164062 -0.875,0.85677 -1.07552,1.567707 -1.07552,4.666663 0,3.226559 1.14844,5.906245 0.80208,1.841144 2.13281,2.643231 1.16666,0.71093 2.58854,0.71093 1.64062,0 2.53385,-0.51041 1.07552,-0.638024 1.75,-2.44271 0.52864,-1.367186 0.52864,-3.955726 z m 32.48435,7.401036 q 0,0.14583 -0.21875,0.14583 h -7.43749 q -0.1823,0 -0.1823,-0.18229 v -0.5651 q 0,-0.21875 0.1823,-0.21875 h 1.71354 q 0.29166,0 0.34635,-0.3099 0.18229,-0.984372 0.18229,-8.020824 0,-3.463539 -0.74739,-4.411455 -0.89323,-1.111978 -2.73438,-1.111978 -2.38802,0 -3.82812,1.49479 -0.16406,0.200521 -0.16406,0.473958 v 8.039056 q 0,3.846353 0.52864,3.846353 h 2.16927 q 0.14584,0 0.14584,0.18229 v 0.60156 q 0,0.18229 -0.14584,0.18229 h -7.12759 q -0.20053,0 -0.20053,-0.14583 v -0.63802 q 0,-0.18229 0.16407,-0.18229 h 1.78645 q 0.25521,0 0.25521,-0.34636 0,-0.10937 -0.0182,-5.268221 -0.0182,-5.15885 -0.0182,-5.395829 0,-2.98958 -2.95312,-2.98958 -2.7526,0 -4.21093,1.458332 -0.21875,0.218749 -0.21875,0.473958 v 8.294263 q 0,3.809897 0.61979,3.809897 h 2.20573 q 0.20052,0 0.20052,0.14583 v 0.60156 q 0,0.18229 -0.16407,0.18229 h -7.80207 q -0.14584,0 -0.18229,-0.0547 -0.0365,-0.0547 -0.0365,-0.12761 v -0.52864 q 0,-0.25521 0.21875,-0.25521 h 2.16927 q 0.34635,0 0.34635,-0.45573 0,-0.0729 -0.0911,-5.632809 -0.0729,-5.57812 -0.0729,-5.833328 0,-2.971352 -0.7474,-2.971352 h -1.89583 q -0.21875,0 -0.21875,-0.200521 v -0.546874 q 0,-0.200521 0.18229,-0.200521 h 2.53385 q 0.58334,0 1.53125,-0.109375 0.14584,-0.01823 0.51042,-0.09114 0.36458,-0.09115 0.45573,-0.09115 0.27344,0 0.27344,0.291666 0,0.09115 -0.0365,0.984374 -0.0365,0.893229 -0.0365,1.039062 0,0.455729 0.25521,0.291666 0.30989,-0.236978 2.02343,-1.294269 0.40104,-0.291667 1.25781,-0.710937 1.3125,-0.455729 2.53386,-0.455729 1.42187,0 2.40624,0.820312 0.76563,0.656249 1.03907,1.768228 0.0911,0.364583 0.36458,0.145833 0.91146,-0.893229 1.42187,-1.203124 0.27344,-0.236979 1.3125,-0.893229 0.91146,-0.492187 2.71615,-0.492187 1.85937,0 3.13541,1.276041 1.42187,1.403644 1.42187,5.705724 0,0.182292 -0.10937,3.244789 -0.10938,3.044268 -0.10938,3.190102 0,2.424479 0.40104,2.424479 h 2.55209 q 0.14583,0 0.14583,0.18229 z m 15.67707,-2.315103 q 0,0.03646 -0.0365,0.109375 -0.5651,0.565104 -0.94791,0.838538 -0.67448,0.47396 -1.82292,0.98438 -1.84114,0.82031 -3.99218,0.82031 -3.20833,0 -5.10416,-1.895833 -2.3151,-2.315102 -2.3151,-5.632807 0,-2.36979 0.2552,-3.481768 0.63802,-2.716144 2.24219,-4.283851 1.85937,-1.841144 4.59375,-1.841144 1.31249,0 2.15103,0.41927 0.65625,0.309896 2.09636,1.348958 1.71354,1.221353 2.3151,2.533852 0.14583,0.328124 0.14583,0.565103 0,0.200521 -0.32812,0.328125 -0.69271,0.273437 -4.0651,0.893228 -3.84635,0.710937 -5.12239,0.710937 -0.10938,0 -0.875,0.01823 -0.7474,0.01823 -0.875,0.01823 -0.21875,0 -0.21875,0.85677 0,3.773434 2.7526,6.161453 1.47656,1.27604 4.84895,1.27604 1.73177,0 2.84375,-0.382812 0.78385,-0.255208 1.07552,-0.546874 0.0547,-0.03646 0.16406,-0.09115 0.0912,0 0.14584,0.127604 0.0365,0.05469 0.0729,0.145833 z m -3.40885,-9.752596 q 0,-0.145833 -0.18229,-0.473958 -0.78385,-1.385415 -1.96875,-2.296873 -1.18489,-0.911457 -2.73437,-0.911457 -1.14844,0 -2.20573,1.403644 -0.38281,0.528646 -0.82031,1.622395 -0.47396,1.184895 -0.47396,1.822915 0,0.291666 0.21875,0.291666 -0.18229,0 3.13542,-0.255208 3.15364,-0.255208 4.73958,-0.85677 0.29166,-0.127604 0.29166,-0.346354 z m 24.53643,10.007804 q 0,0.273438 -0.14583,0.419271 -0.74739,0.601564 -1.95052,1.148434 -2.05989,0.96615 -3.82812,0.96615 -3.80989,0 -3.80989,-3.882812 0,-0.236979 0.0729,-4.046871 0.0729,-3.809893 0.0729,-4.010414 0,-0.236979 -0.0365,-1.567707 -0.0365,-1.348957 -0.0365,-1.421873 0,-0.382813 -0.34635,-0.546875 -0.27344,-0.145833 -1.42187,-0.63802 -0.23698,-0.109375 -0.21875,-0.419271 0,-0.236979 0.27343,-0.437499 1.82292,-1.549478 3.88281,-3.263018 0.27344,-0.182292 0.47396,-0.182292 0.29167,0 0.18229,0.528645 -0.21875,1.184895 -0.21875,2.424478 0,0.601562 0.18229,0.601562 0.16407,0 3.15365,-0.09115 2.98958,-0.109375 3.08072,-0.109375 0.38282,0 0.27344,0.382812 0,0.364583 -0.27344,1.039062 -0.0911,0.273437 -0.32812,0.273437 -0.16406,0 -2.98958,-0.01823 -2.80729,-0.01823 -2.91667,-0.01823 -0.21875,0 -0.21875,0.182291 v 10.117179 q 0,1.585936 0.45573,2.315102 0.49219,0.820312 2.75261,0.820312 1.23958,0 2.91666,-0.565104 0.72917,-0.328124 0.78385,-0.328124 0.18229,0 0.18229,0.328124 z m 17.77343,-6.234369 q 0,2.369789 -0.78385,4.229163 -0.91146,2.15104 -3.31771,3.500001 -1.65885,0.92968 -3.84635,0.92968 -2.47916,0 -3.51822,-0.4375 -2.22396,-0.98437 -3.35417,-3.244786 -1.11198,-2.278644 -1.11198,-4.830725 0,-2.807289 1.22136,-4.958329 1.11198,-1.93229 3.13541,-2.953123 1.56771,-0.783853 4.44791,-0.783853 2.33334,0 3.70052,0.85677 1.78646,1.130207 2.64323,3.20833 0.78385,1.914061 0.78385,4.484372 z m -2.57031,0.893228 q 0,-3.791663 -1.80468,-5.924474 -1.84115,-2.205727 -4.8125,-2.205727 -1.54948,0 -2.11458,0.255208 -0.38281,0.164062 -0.875,0.85677 -1.07552,1.567707 -1.07552,4.666663 0,3.226559 1.14844,5.906245 0.80208,1.841144 2.13281,2.643231 1.16666,0.71093 2.58854,0.71093 1.64062,0 2.53385,-0.51041 1.07552,-0.638024 1.75,-2.44271 0.52864,-1.367186 0.52864,-3.955726 z m 24.33592,5.341141 q 0,0.273438 -0.14584,0.419271 -0.74739,0.601564 -1.95052,1.148434 -2.05989,0.96615 -3.82812,0.96615 -3.80989,0 -3.80989,-3.882812 0,-0.236979 0.0729,-4.046871 0.0729,-3.809893 0.0729,-4.010414 0,-0.236979 -0.0365,-1.567707 -0.0365,-1.348957 -0.0365,-1.421873 0,-0.382813 -0.34636,-0.546875 -0.27343,-0.145833 -1.42187,-0.63802 -0.23698,-0.109375 -0.21875,-0.419271 0,-0.236979 0.27344,-0.437499 1.82291,-1.549478 3.88281,-3.263018 0.27343,-0.182292 0.47395,-0.182292 0.29167,0 0.18229,0.528645 -0.21875,1.184895 -0.21875,2.424478 0,0.601562 0.1823,0.601562 0.16406,0 3.15364,-0.09115 2.98958,-0.109375 3.08073,-0.109375 0.38281,0 0.27343,0.382812 0,0.364583 -0.27343,1.039062 -0.0912,0.273437 -0.32813,0.273437 -0.16406,0 -2.98958,-0.01823 -2.80729,-0.01823 -2.91666,-0.01823 -0.21875,0 -0.21875,0.182291 v 10.117179 q 0,1.585936 0.45573,2.315102 0.49218,0.820312 2.7526,0.820312 1.23958,0 2.91666,-0.565104 0.72917,-0.328124 0.78385,-0.328124 0.1823,0 0.1823,0.328124 z m 20.19789,2.059895 q 0,0.14583 -0.18229,0.14583 h -7.51042 q -0.18229,0 -0.18229,-0.18229 v -0.52864 q 0,-0.25521 0.18229,-0.25521 h 1.67709 q 0.2552,0 0.30989,-0.45573 0.21875,-1.786458 0.21875,-4.32031 0,-1.531249 -0.0365,-3.080727 -0.0365,-1.549477 -0.0365,-1.440102 0,-2.351561 -0.63802,-3.281248 -0.67448,-1.020832 -2.75261,-1.020832 -2.66145,0 -4.33853,1.130207 -0.21875,0.145833 -0.21875,0.473958 0,0.05469 0.0182,3.66406 0.0182,3.591142 0.0182,3.809892 0,4.557292 0.7474,4.557292 h 2.49739 q 0.14584,0 0.14584,0.14583 v 0.63802 q 0,0.14583 -0.14584,0.14583 h -8.29426 q -0.18229,0 -0.18229,-0.14583 v -0.60156 q 0,-0.21875 0.21875,-0.21875 h 2.20572 q 0.27344,0 0.27344,-0.3099 V 80.127843 q 0,-4.265622 -0.5651,-4.265622 h -2.35156 q -0.0911,0 -0.14584,-0.01823 -0.0365,-0.03646 -0.0365,-0.200521 v -0.565103 q 0,-0.09115 0.0182,-0.127604 0.0365,-0.05469 0.20052,-0.05469 h 0.78385 q 0.91146,0 3.09896,-0.473958 1.40364,-0.565103 1.49479,-0.565103 0.29166,0 0.29166,0.601562 0,-0.164063 -0.16406,5.304683 -0.16406,5.468745 -0.16406,7.164056 0,0.492187 0.21875,0.346354 0.40104,-0.255208 1.27604,-0.874999 0.47396,-0.346354 1.36718,-0.893229 1.80469,-0.85677 3.3724,-0.85677 1.62239,0 2.86197,1.166666 1.42188,1.312499 1.42188,3.992184 0,0.145833 -0.0729,3.408851 -0.0729,3.263018 -0.0729,3.499997 0,3.91927 0.49219,3.91927 h 2.4974 q 0.18229,0 0.18229,0.18229 z m 15.60415,-2.315103 q 0,0.03646 -0.0365,0.109375 -0.5651,0.565104 -0.94791,0.838538 -0.67448,0.47396 -1.82292,0.98438 -1.84114,0.82031 -3.99218,0.82031 -3.20833,0 -5.10416,-1.895833 -2.31511,-2.315102 -2.31511,-5.632807 0,-2.36979 0.25521,-3.481768 0.63802,-2.716144 2.24219,-4.283851 1.85937,-1.841144 4.59374,-1.841144 1.3125,0 2.15104,0.41927 0.65625,0.309896 2.09636,1.348958 1.71354,1.221353 2.3151,2.533852 0.14583,0.328124 0.14583,0.565103 0,0.200521 -0.32812,0.328125 -0.69271,0.273437 -4.0651,0.893228 -3.84636,0.710937 -5.1224,0.710937 -0.10937,0 -0.87499,0.01823 -0.7474,0.01823 -0.875,0.01823 -0.21875,0 -0.21875,0.85677 0,3.773434 2.7526,6.161453 1.47656,1.27604 4.84895,1.27604 1.73177,0 2.84375,-0.382812 0.78385,-0.255208 1.07552,-0.546874 0.0547,-0.03646 0.16406,-0.09115 0.0912,0 0.14584,0.127604 0.0365,0.05469 0.0729,0.145833 z m -3.40885,-9.752596 q 0,-0.145833 -0.18229,-0.473958 -0.78385,-1.385415 -1.96875,-2.296873 -1.18489,-0.911457 -2.73437,-0.911457 -1.14844,0 -2.20573,1.403644 -0.38281,0.528646 -0.82031,1.622395 -0.47396,1.184895 -0.47396,1.822915 0,0.291666 0.21875,0.291666 -0.18229,0 3.13541,-0.255208 3.15365,-0.255208 4.73958,-0.85677 0.29167,-0.127604 0.29167,-0.346354 z m 31.51821,12.067699 q 0,0.14583 -0.18229,0.14583 h -7.51041 q -0.18229,0 -0.18229,-0.18229 v -0.52864 q 0,-0.25521 0.18229,-0.25521 h 1.67708 q 0.25521,0 0.3099,-0.45573 0.21875,-1.786458 0.21875,-4.32031 0,-1.531249 -0.0365,-3.080727 -0.0365,-1.549477 -0.0365,-1.440102 0,-2.351561 -0.63802,-3.281248 -0.67448,-1.020832 -2.7526,-1.020832 -2.66146,0 -4.33854,1.130207 -0.21875,0.145833 -0.21875,0.473958 0,0.05469 0.0182,3.66406 0.0182,3.591142 0.0182,3.809892 0,4.557292 0.7474,4.557292 h 2.49739 q 0.14583,0 0.14583,0.14583 v 0.63802 q 0,0.14583 -0.14583,0.14583 h -8.29426 q -0.1823,0 -0.1823,-0.14583 v -0.60156 q 0,-0.21875 0.21875,-0.21875 h 2.20573 q 0.27344,0 0.27344,-0.3099 V 80.127843 q 0,-4.265622 -0.56511,-4.265622 h -2.35156 q -0.0911,0 -0.14583,-0.01823 -0.0365,-0.03646 -0.0365,-0.200521 v -0.565103 q 0,-0.09115 0.0182,-0.127604 0.0365,-0.05469 0.20052,-0.05469 h 0.78386 q 0.91145,0 3.09895,-0.473958 1.40365,-0.565103 1.49479,-0.565103 0.29167,0 0.29167,0.601562 0,-0.164063 -0.16406,5.304683 -0.16407,5.468745 -0.16407,7.164056 0,0.492187 0.21875,0.346354 0.40104,-0.255208 1.27604,-0.874999 0.47396,-0.346354 1.36719,-0.893229 1.80469,-0.85677 3.37239,-0.85677 1.6224,0 2.86198,1.166666 1.42187,1.312499 1.42187,3.992184 0,0.145833 -0.0729,3.408851 -0.0729,3.263018 -0.0729,3.499997 0,3.91927 0.49219,3.91927 h 2.49739 q 0.18229,0 0.18229,0.18229 z m 17.3177,-8.294264 q 0,2.369789 -0.78386,4.229163 -0.91145,2.15104 -3.3177,3.500001 -1.65885,0.92968 -3.84635,0.92968 -2.47917,0 -3.51823,-0.4375 -2.22395,-0.98437 -3.35416,-3.244786 -1.11198,-2.278644 -1.11198,-4.830725 0,-2.807289 1.22135,-4.958329 1.11198,-1.93229 3.13542,-2.953123 1.5677,-0.783853 4.44791,-0.783853 2.33333,0 3.70052,0.85677 1.78645,1.130207 2.64322,3.20833 0.78386,1.914061 0.78386,4.484372 z m -2.57031,0.893228 q 0,-3.791663 -1.80469,-5.924474 -1.84114,-2.205727 -4.81249,-2.205727 -1.54948,0 -2.11459,0.255208 -0.38281,0.164062 -0.87499,0.85677 -1.07552,1.567707 -1.07552,4.666663 0,3.226559 1.14843,5.906245 0.80208,1.841144 2.13281,2.643231 1.16667,0.71093 2.58854,0.71093 1.64063,0 2.53385,-0.51041 1.07552,-0.638024 1.75,-2.44271 0.52865,-1.367186 0.52865,-3.955726 z m 32.48435,7.401036 q 0,0.14583 -0.21875,0.14583 h -7.43749 q -0.18229,0 -0.18229,-0.18229 v -0.5651 q 0,-0.21875 0.18229,-0.21875 h 1.71354 q 0.29166,0 0.34635,-0.3099 0.18229,-0.984372 0.18229,-8.020824 0,-3.463539 -0.74739,-4.411455 -0.89323,-1.111978 -2.73438,-1.111978 -2.38801,0 -3.82812,1.49479 -0.16406,0.200521 -0.16406,0.473958 v 8.039056 q 0,3.846353 0.52865,3.846353 h 2.16927 q 0.14583,0 0.14583,0.18229 v 0.60156 q 0,0.18229 -0.14583,0.18229 h -7.1276 q -0.20052,0 -0.20052,-0.14583 v -0.63802 q 0,-0.18229 0.16406,-0.18229 h 1.78646 q 0.2552,0 0.2552,-0.34636 0,-0.10937 -0.0182,-5.268221 -0.0182,-5.15885 -0.0182,-5.395829 0,-2.98958 -2.95313,-2.98958 -2.7526,0 -4.21093,1.458332 -0.21875,0.218749 -0.21875,0.473958 v 8.294263 q 0,3.809897 0.61979,3.809897 h 2.20573 q 0.20052,0 0.20052,0.14583 v 0.60156 q 0,0.18229 -0.16406,0.18229 h -7.80208 q -0.14583,0 -0.18229,-0.0547 -0.0365,-0.0547 -0.0365,-0.12761 v -0.52864 q 0,-0.25521 0.21875,-0.25521 h 2.16927 q 0.34635,0 0.34635,-0.45573 0,-0.0729 -0.0911,-5.632809 -0.0729,-5.57812 -0.0729,-5.833328 0,-2.971352 -0.7474,-2.971352 h -1.89583 q -0.21875,0 -0.21875,-0.200521 v -0.546874 q 0,-0.200521 0.18229,-0.200521 h 2.53386 q 0.58333,0 1.53125,-0.109375 0.14583,-0.01823 0.51041,-0.09114 0.36458,-0.09115 0.45573,-0.09115 0.27344,0 0.27344,0.291666 0,0.09115 -0.0365,0.984374 -0.0365,0.893229 -0.0365,1.039062 0,0.455729 0.25521,0.291666 0.30989,-0.236978 2.02343,-1.294269 0.40105,-0.291667 1.25782,-0.710937 1.31249,-0.455729 2.53385,-0.455729 1.42187,0 2.40625,0.820312 0.76562,0.656249 1.03906,1.768228 0.0911,0.364583 0.36458,0.145833 0.91146,-0.893229 1.42187,-1.203124 0.27344,-0.236979 1.3125,-0.893229 0.91146,-0.492187 2.71615,-0.492187 1.85937,0 3.13541,1.276041 1.42187,1.403644 1.42187,5.705724 0,0.182292 -0.10937,3.244789 -0.10938,3.044268 -0.10938,3.190102 0,2.424479 0.40105,2.424479 h 2.55208 q 0.14583,0 0.14583,0.18229 z m 15.67704,-2.315103 q 0,0.03646 -0.0364,0.109375 -0.56511,0.565104 -0.94792,0.838538 -0.67448,0.47396 -1.82291,0.98438 -1.84115,0.82031 -3.99219,0.82031 -3.20833,0 -5.10416,-1.895833 -2.3151,-2.315102 -2.3151,-5.632807 0,-2.36979 0.2552,-3.481768 0.63802,-2.716144 2.24219,-4.283851 1.85937,-1.841144 4.59375,-1.841144 1.3125,0 2.15104,0.41927 0.65625,0.309896 2.09635,1.348958 1.71354,1.221353 2.3151,2.533852 0.14583,0.328124 0.14583,0.565103 0,0.200521 -0.32812,0.328125 -0.69271,0.273437 -4.0651,0.893228 -3.84635,0.710937 -5.12239,0.710937 -0.10938,0 -0.875,0.01823 -0.7474,0.01823 -0.875,0.01823 -0.21875,0 -0.21875,0.85677 0,3.773434 2.7526,6.161453 1.47656,1.27604 4.84895,1.27604 1.73177,0 2.84375,-0.382812 0.78386,-0.255208 1.07552,-0.546874 0.0547,-0.03646 0.16406,-0.09115 0.0912,0 0.14584,0.127604 0.0365,0.05469 0.0729,0.145833 z m -3.40885,-9.752596 q 0,-0.145833 -0.18229,-0.473958 -0.78385,-1.385415 -1.96875,-2.296873 -1.18489,-0.911457 -2.73437,-0.911457 -1.14844,0 -2.20573,1.403644 -0.38281,0.528646 -0.82031,1.622395 -0.47396,1.184895 -0.47396,1.822915 0,0.291666 0.21875,0.291666 -0.18229,0 3.13542,-0.255208 3.15364,-0.255208 4.73958,-0.85677 0.29166,-0.127604 0.29166,-0.346354 z m 29.09374,3.773435 q 0,2.369789 -0.78385,4.229163 -0.91146,2.15104 -3.31771,3.500001 -1.65885,0.92968 -3.84635,0.92968 -2.47917,0 -3.51823,-0.4375 -2.22395,-0.98437 -3.35416,-3.244786 -1.11198,-2.278644 -1.11198,-4.830725 0,-2.807289 1.22135,-4.958329 1.11198,-1.93229 3.13542,-2.953123 1.5677,-0.783853 4.44791,-0.783853 2.33333,0 3.70052,0.85677 1.78645,1.130207 2.64323,3.20833 0.78385,1.914061 0.78385,4.484372 z m -2.57031,0.893228 q 0,-3.791663 -1.80469,-5.924474 -1.84114,-2.205727 -4.81249,-2.205727 -1.54948,0 -2.11459,0.255208 -0.38281,0.164062 -0.87499,0.85677 -1.07552,1.567707 -1.07552,4.666663 0,3.226559 1.14843,5.906245 0.80208,1.841144 2.13281,2.643231 1.16667,0.71093 2.58854,0.71093 1.64063,0 2.53385,-0.51041 1.07552,-0.638024 1.75,-2.44271 0.52865,-1.367186 0.52865,-3.955726 z M 578.7256,75.406492 q 0,0.966145 -1.16667,0.966145 -1.27604,0 -2.53385,-1.257811 -0.29167,-0.182291 -0.45573,-0.182291 -0.69271,0 -1.3125,0.692707 -0.96614,1.148437 -0.96614,3.591143 0,-0.182291 -0.0182,1.71354 -0.0182,1.895832 -0.0182,3.718747 0,0.382812 0.21875,0.382812 0.38281,0 3.97395,-0.03646 0.18229,0 0.18229,0.182291 v 0.820312 q 0,0.21875 -0.18229,0.21875 -0.1276,0 -1.95052,-0.03646 -1.82291,-0.03646 -1.89583,-0.03646 -0.30989,0 -0.30989,0.255209 0,0.109374 0.0365,5.177079 0.0365,5.049474 0.0365,5.322912 0,3.773438 0.71094,3.773438 h 3.28125 q 0.20052,0 0.20052,0.14583 v 0.60156 q 0,0.18229 -0.14584,0.18229 h -9.22395 q -0.20052,0 -0.20052,-0.10937 v -0.67448 q 0.0182,-0.0911 0.0365,-0.1276 0.0365,-0.0547 0.20052,-0.0547 h 2.4974 q 0.2552,0 0.2552,-0.3099 0,-0.10937 -0.0547,-2.369788 -0.0547,-2.260414 -0.0547,-2.479164 V 86.63565 q 0,-0.455729 -0.21875,-0.455729 -0.21875,0 -1.49479,0.03646 -0.10938,0 -0.14583,-0.03646 -0.0365,-0.03646 -0.0365,-0.21875 v -0.63802 q 0,-0.291667 0.21875,-0.291667 0.0729,0 0.67448,-0.01823 0.60156,-0.01823 0.80208,-0.01823 0.20052,0 0.20052,-0.273437 v -5.15885 q 0,-2.716144 2.05989,-4.411455 1.56771,-1.312499 4.10156,-1.312499 1.07552,0 1.93229,0.583333 0.76563,0.528646 0.76563,0.984374 z m 22.34894,23.20571 q 0,0.273437 -0.89323,0.966145 -2.93489,2.278643 -6.30728,2.278643 -2.00521,0 -3.17188,-0.61979 -1.74999,-0.94792 -3.02603,-3.22656 -1.03907,-1.841144 -1.03907,-4.666663 0,-1.895832 0.4375,-3.536455 0.58334,-2.15104 2.24219,-3.591143 1.80468,-1.567707 4.99479,-1.567707 2.84374,0 4.79426,1.877603 1.03906,1.002603 1.03906,1.822915 0,0.85677 -0.67447,0.85677 -0.91146,0 -1.85938,-0.929687 -0.85677,-0.85677 -1.16666,-1.914061 -0.12761,-0.437499 -0.83854,-0.546874 -0.69271,-0.109375 -1.40365,-0.109375 -0.91146,0 -1.49479,0.109375 -1.51302,0.291666 -2.38802,1.257811 -1.45833,1.622395 -1.45833,5.085933 0,3.536456 2.35156,6.01562 1.05729,1.093749 2.58854,1.421874 0.78385,0.182292 2.46094,0.182292 2.26041,0 3.84635,-1.130208 0.21875,-0.145833 0.52864,-0.364583 0.0729,-0.03646 0.21875,-0.03646 0.21875,0.20052 0.21875,0.364583 z m 20.38018,2.843748 q 0,0.14583 -0.1823,0.14583 h -7.51041 q -0.18229,0 -0.18229,-0.18229 v -0.52864 q 0,-0.25521 0.18229,-0.25521 h 1.67709 q 0.2552,0 0.30989,-0.45573 0.21875,-1.786458 0.21875,-4.32031 0,-1.531249 -0.0365,-3.080727 -0.0365,-1.549477 -0.0365,-1.440102 0,-2.351561 -0.63802,-3.281248 -0.67447,-1.020832 -2.7526,-1.020832 -2.66145,0 -4.33854,1.130207 -0.21875,0.145833 -0.21875,0.473958 0,0.05469 0.0182,3.66406 0.0182,3.591142 0.0182,3.809892 0,4.557292 0.7474,4.557292 h 2.49739 q 0.14584,0 0.14584,0.14583 v 0.63802 q 0,0.14583 -0.14584,0.14583 h -8.29426 q -0.18229,0 -0.18229,-0.14583 v -0.60156 q 0,-0.21875 0.21875,-0.21875 h 2.20572 q 0.27344,0 0.27344,-0.3099 V 80.127843 q 0,-4.265622 -0.5651,-4.265622 h -2.35156 q -0.0912,0 -0.14584,-0.01823 -0.0365,-0.03646 -0.0365,-0.200521 v -0.565103 q 0,-0.09115 0.0182,-0.127604 0.0365,-0.05469 0.20053,-0.05469 h 0.78385 q 0.91146,0 3.09895,-0.473958 1.40365,-0.565103 1.49479,-0.565103 0.29167,0 0.29167,0.601562 0,-0.164063 -0.16406,5.304683 -0.16406,5.468745 -0.16406,7.164056 0,0.492187 0.21875,0.346354 0.40104,-0.255208 1.27604,-0.874999 0.47395,-0.346354 1.36718,-0.893229 1.80469,-0.85677 3.3724,-0.85677 1.62239,0 2.86197,1.166666 1.42188,1.312499 1.42188,3.992184 0,0.145833 -0.0729,3.408851 -0.0729,3.263018 -0.0729,3.499997 0,3.91927 0.49219,3.91927 h 2.49739 q 0.1823,0 0.1823,0.18229 z m 6.83594,-23.114564 q 0,0.966145 -0.875,1.71354 -0.74739,0.63802 -1.40364,0.63802 -1.20312,0 -1.20312,-1.184895 0,-0.710936 0.60156,-1.440102 0.72916,-0.875 1.78646,-0.875 1.09374,0 1.09374,1.148437 z m 3.00781,23.078104 q 0,0.18229 -0.21875,0.18229 h -8.65884 q -0.18229,0 -0.18229,-0.21875 v -0.5651 q 0,-0.25521 0.14583,-0.25521 h 2.64323 q 0.34635,0 0.34635,-0.38281 0,-0.10938 0.0182,-4.411456 0.0182,-4.320309 0.0182,-4.776037 0,-2.843748 -0.0547,-3.408852 -0.20052,-1.695311 -0.98437,-1.695311 h -1.80469 q -0.29167,0 -0.29167,-0.182291 v -0.63802 q 0,-0.236979 0.1823,-0.236979 h 1.07552 q 1.69531,0 3.26301,-0.145834 1.16667,-0.109375 1.07552,-0.109375 0.41927,0 0.41927,0.565104 0,0.05469 -0.14583,5.432287 -0.1276,5.359371 -0.1276,5.614579 0,4.374995 0.89323,4.374995 h 2.20572 q 0.18229,0 0.18229,0.18229 z m 10.20831,0.0365 q 0,0.14583 -0.20052,0.14583 h -9.05989 q -0.23698,0 -0.23698,-0.18229 v -0.63802 q 0,-0.21875 0.20052,-0.21875 h 2.97135 q 0.38281,0 0.38281,-0.41927 V 79.909093 q 0,-4.046872 -0.71093,-4.046872 h -2.24219 q -0.21875,0 -0.21875,-0.21875 v -0.601562 q 0,-0.255208 0.14583,-0.255208 h 1.42188 q 1.27604,0 2.67968,-0.364583 1.42188,-0.382812 1.23959,-0.382812 0.32812,0 0.32812,0.528645 0,0.05469 -0.10937,10.809887 -0.10938,10.755199 -0.10938,11.138011 0,4.046871 0.67448,4.046871 h 2.64323 q 0.20052,0 0.20052,0.18229 z m 20.38021,-1.986978 q 0,0.328125 -0.14584,0.382812 -1.4401,0.473956 -4.01041,1.640626 -1.54948,0.71093 -1.4401,0.71093 -0.27344,0 -0.27344,-0.41927 0,-0.14583 0.0547,-0.82031 0.0547,-0.67448 0.0547,-0.82031 0,-0.601561 -0.0729,-1.111978 -0.0912,-0.291666 -0.40104,-0.164062 -1.05729,0.802083 -2.53386,1.8776 -1.64062,1.07552 -4.04687,1.07552 -1.51302,0 -2.57031,-0.58333 -1.64062,-0.92969 -2.46093,-2.770831 -1.03906,-2.351561 -1.03906,-4.994788 0,-4.484371 2.26041,-6.726557 1.96875,-1.950519 5.04948,-1.950519 1.67708,0 2.93489,0.455729 0.72916,0.273437 2.29687,1.148437 0.25521,0.164062 0.25521,-0.328125 0,-0.182292 -0.0365,-3.427081 -0.0365,-3.263018 -0.0365,-3.554684 0,-3.22656 -0.71093,-3.22656 h -2.53386 q -0.20052,0 -0.20052,-0.21875 v -0.473958 q 0,-0.273437 0.20052,-0.273437 h 0.85677 q 2.38802,0 3.91927,-0.63802 0.96615,-0.401041 1.00261,-0.401041 0.21875,0 0.21875,0.473958 0,0.05469 -0.0547,2.333331 -0.0547,2.260415 -0.0547,2.679685 v 17.135402 q 0,3.627599 0.71094,3.408851 1.29427,-0.41927 1.84114,-0.63802 0.61979,-0.255208 0.78385,-0.255208 0.1823,0 0.1823,0.473958 z m -5.86979,-2.424477 q 0,0.164062 -0.0182,-1.877603 -0.0182,-2.059894 -0.0182,-3.64583 0,-2.35156 -0.29166,-3.809893 -0.10938,-0.492187 -0.56511,-0.747395 -1.95052,-1.039061 -4.48437,-1.039061 -2.57031,0 -3.84635,1.49479 -1.60417,1.877603 -1.60417,5.414058 0,1.385415 0.52865,2.916664 0.4375,1.312499 0.92969,1.93229 0.875,1.093749 1.67708,1.476561 0.91146,0.419271 2.58854,0.419271 2.57031,0 4.84895,-1.677082 0.25521,-0.182292 0.25521,-0.85677 z m 18.94007,-10.481762 q -0.20052,1.184895 -0.5651,2.278644 -0.0911,0.291666 -0.25521,0.291666 -0.20052,0 -0.32812,-0.182291 -0.47396,-0.674479 -0.83854,-0.929687 -0.71094,-0.565104 -1.82292,-0.565104 -2.05989,0 -3.09895,0.893229 -0.1823,0.164062 -0.1823,0.492187 0,0.109375 -0.0182,4.210934 -0.0182,4.101559 -0.0182,4.338538 0,3.244791 0.60156,3.244791 h 3.57291 q 0.23698,0 0.23698,0.25521 v 0.52864 q 0,0.18229 -0.16406,0.18229 h -9.33333 q -0.25521,0 -0.25521,-0.18229 v -0.52864 q 0,-0.25521 0.21875,-0.25521 h 2.20573 q 0.34636,0 0.34636,-0.34636 V 88.312731 q 0,-2.497393 -0.60157,-2.497393 h -2.24218 q -0.18229,0 -0.18229,-0.200521 v -0.583333 q 0,-0.20052 0.18229,-0.20052 h 2.49739 q 1.3125,0 1.67708,-0.109375 1.00261,-0.291667 1.09375,-0.291667 0.25521,0 0.25521,0.492187 0,0.127604 -0.0365,1.093749 -0.0365,0.947916 -0.0365,1.057291 0,0.528646 0.21875,0.309896 0.83855,-0.729166 1.91407,-1.604166 1.33072,-0.984374 2.60676,-0.984374 1.47657,0 2.27865,1.239583 0.16406,0.255208 0.0729,0.528645 z m 15.74999,12.578114 q 0,0.03646 -0.0365,0.109375 -0.5651,0.565104 -0.94791,0.838538 -0.67448,0.47396 -1.82292,0.98438 -1.84114,0.82031 -3.99218,0.82031 -3.20833,0 -5.10416,-1.895833 -2.31511,-2.315102 -2.31511,-5.632807 0,-2.36979 0.25521,-3.481768 0.63802,-2.716144 2.24219,-4.283851 1.85937,-1.841144 4.59374,-1.841144 1.3125,0 2.15104,0.41927 0.65625,0.309896 2.09636,1.348958 1.71354,1.221353 2.3151,2.533852 0.14583,0.328124 0.14583,0.565103 0,0.200521 -0.32812,0.328125 -0.69271,0.273437 -4.0651,0.893228 -3.84635,0.710937 -5.1224,0.710937 -0.10937,0 -0.87499,0.01823 -0.7474,0.01823 -0.875,0.01823 -0.21875,0 -0.21875,0.85677 0,3.773434 2.7526,6.161453 1.47656,1.27604 4.84895,1.27604 1.73177,0 2.84375,-0.382812 0.78385,-0.255208 1.07552,-0.546874 0.0547,-0.03646 0.16406,-0.09115 0.0911,0 0.14584,0.127604 0.0364,0.05469 0.0729,0.145833 z m -3.40885,-9.752596 q 0,-0.145833 -0.18229,-0.473958 -0.78385,-1.385415 -1.96875,-2.296873 -1.18489,-0.911457 -2.73437,-0.911457 -1.14844,0 -2.20573,1.403644 -0.38281,0.528646 -0.82031,1.622395 -0.47396,1.184895 -0.47396,1.822915 0,0.291666 0.21875,0.291666 -0.18229,0 3.13542,-0.255208 3.15364,-0.255208 4.73957,-0.85677 0.29167,-0.127604 0.29167,-0.346354 z m 23.5703,11.994779 q 0,0.21875 -0.14584,0.21875 h -7.6927 q -0.18229,0 -0.18229,-0.14583 v -0.63802 q 0,-0.18229 0.18229,-0.18229 h 1.95052 q 0.23698,0 0.32813,-0.3099 0.2552,-1.914059 0.2552,-8.476553 0,-3.062498 -0.94791,-3.955726 -0.92969,-0.893228 -2.86198,-0.893228 -2.4427,0 -4.02864,1.093749 -0.25521,0.164062 -0.25521,0.473958 -0.10937,0.783853 -0.10937,8.257805 0,3.809895 0.5651,3.809895 h 2.49739 q 0.18229,0 0.18229,0.18229 v 0.63802 q 0,0.14583 -0.18229,0.14583 h -8.18489 q -0.0911,0 -0.14583,-0.0365 -0.0365,-0.0365 -0.0365,-0.18229 v -0.60156 q 0,-0.14583 0.18229,-0.14583 h 2.31511 q 0.27343,0 0.27343,-0.34636 0,-0.10937 0.0547,-5.815095 0.0547,-5.723954 0.0547,-6.01562 0,-2.716144 -0.5651,-2.716144 h -2.20573 q -0.21875,0 -0.21875,-0.236979 v -0.546874 q 0,-0.164063 0.14583,-0.164063 h 2.35156 q 0.20052,0 0.94792,-0.03646 0.76562,-0.03646 0.80208,-0.03646 0.18229,-0.01823 0.5651,-0.09115 0.38282,-0.09115 0.52865,-0.09115 0.25521,0 0.25521,0.419271 0,0.09114 -0.0365,0.947915 -0.0365,0.856771 -0.0365,0.984375 0,0.565103 0.21875,0.346354 1.56771,-1.276041 3.02604,-1.914061 1.38542,-0.601562 2.66146,-0.601562 1.95051,0 3.24478,1.27604 1.38542,1.348957 1.38542,5.031246 0,1.221353 -0.1276,4.138017 -0.10938,2.898435 -0.10938,2.843748 0,2.66146 0.38281,2.66146 h 2.4974 q 0.21875,0 0.21875,0.10937 z m 4.68491,-23.57029 q 0.0729,0.09115 -0.12761,0.710937 -0.27344,0.893229 0,2.515623 0.40104,2.242186 0,3.354164 -0.16406,0.473958 -0.36458,0.63802 -0.18229,0.09115 -0.47396,-0.05469 -0.29167,-0.164063 -0.34635,-0.364583 -0.0729,-0.21875 0.14583,-0.601562 0.27344,-0.85677 -0.0729,-2.861977 -0.30989,-1.841144 0.0729,-2.989581 0.14583,-0.401041 0.3099,-0.565103 0.0547,-0.07292 0.20052,-0.07292 0.14583,0 0.34635,0.07292 0.10937,0.07292 0.3099,0.218749 z m 16.64319,19.085922 q 0,1.986977 -1.11198,3.317708 -1.38542,1.64062 -4.63021,1.64062 -3.46353,0 -5.86978,-1.895831 -0.25521,-0.200521 -0.25521,-0.783853 -0.0729,-0.747396 -0.0729,-3.208331 0,-0.346354 0.29167,-0.346354 0.30989,0 0.38281,0.273437 0,0.07292 0.14583,0.510417 0.14584,0.510416 0.1823,0.710936 0.45572,1.585937 1.71354,3.135419 0.34635,0.40104 0.60156,0.45572 0.875,0.14584 2.84375,0.14584 1.95051,0 3.09895,-1.002606 0.89323,-0.783853 0.89323,-2.169269 0,-0.820312 -0.67448,-1.421874 -0.92969,-0.820311 -2.42448,-1.148436 -0.16406,-0.05469 -1.05729,-0.364583 -0.89323,-0.328125 -1.07552,-0.382812 -2.11458,-0.929687 -3.04426,-1.841145 -1.3125,-1.27604 -1.3125,-3.281247 0,-1.622394 1.14843,-2.843747 1.45833,-1.531249 4.22917,-1.531249 3.39062,0 5.03124,1.658853 0.14583,0.145833 0.14583,0.437499 v 2.624998 q 0,0.401041 -0.18229,0.401041 -0.21875,0 -0.32812,-0.218749 -0.69271,-1.51302 -1.53125,-3.281248 -0.16406,-0.309895 -0.41927,-0.346354 -0.80208,-0.218749 -2.49739,-0.218749 -1.60417,0 -2.60677,0.601562 -1.16667,0.674478 -1.16667,2.005206 0,2.15104 2.98958,3.026039 0.91146,0.273438 2.67969,0.85677 1.67708,0.565104 2.66145,1.458333 1.22136,1.130207 1.22136,3.026039 z m 25.22918,3.499998 q 0,0.0911 -0.0729,0.23698 -1.03906,1.03906 -1.49479,1.33073 -0.16406,0.1276 -0.32812,0.1276 -1.07552,0 -2.13281,-1.0026 -0.98438,-0.92969 -1.45833,-2.22396 -0.10938,-0.328125 -0.29167,-0.07292 -0.20052,0.309896 -1.02083,1.057291 -0.82031,0.747396 -1.14844,0.929686 -1.78646,1.03906 -3.24479,1.03906 -1.38541,0 -2.05989,-0.47396 -1.03906,-0.76562 -1.03906,-2.278639 0,-1.786457 1.1302,-3.372393 0.80209,-1.130208 2.4974,-1.895832 1.84114,-0.838541 4.92187,-1.421874 0.16406,-0.03646 0.18229,-0.401041 0.1276,-2.78906 0,-3.773434 -0.10937,-0.966145 -0.83854,-1.440103 -0.72917,-0.473958 -2.05989,-0.473958 -1.87761,0 -2.625,0.455728 -0.4375,0.309896 -0.36459,0.638021 v 0.510416 q 0,0.802083 -0.41927,1.421874 -0.65625,1.020832 -1.53124,1.020832 -0.63802,0 -0.63802,-0.838541 0,-0.710937 0.82031,-1.768227 0.82031,-1.057291 1.80468,-1.658853 1.76823,-1.07552 4.84896,-1.07552 2.04166,0 2.95312,0.85677 0.67448,0.619791 0.67448,2.606769 0,1.440103 -0.18229,4.338538 -0.16407,2.898435 -0.16407,3.281247 0,1.804686 0.92969,2.916664 0.67448,0.783854 2.09635,1.184896 0.25521,0.10937 0.25521,0.21875 z m -5.63281,-6.817704 q 0,-0.346354 -0.29166,-0.346354 -1.42188,0 -3.17187,0.783854 -2.95313,1.330728 -2.95313,3.591143 0,1.385415 0.67448,1.895831 0.5651,0.455729 1.78646,0.455729 1.64062,0 3.24479,-1.421874 0.4375,-0.382812 0.49218,-0.929686 0.21875,-2.169269 0.21875,-4.028643 z m 24.49994,7.273434 q 0,0.16406 -0.16407,0.25521 -0.45573,0.18229 -1.14843,0.49218 -0.18229,0.10938 -0.56511,0.36459 -0.10937,0.1276 -0.32812,0.1276 0.0365,0 -0.49219,-0.27344 -0.96614,-0.60156 -1.56771,-2.716141 -0.0911,-0.309896 -0.36458,-0.07292 -0.60156,0.492187 -3.37239,2.114578 -1.13021,0.67448 -3.77344,0.67448 -1.49479,0 -2.42447,-1.29427 -0.85677,-1.22135 -0.85677,-2.843745 V 90.482 q 0,-4.593746 -0.7474,-4.593746 h -2.16927 q -0.25521,0 -0.25521,-0.182291 v -0.601562 q 0,-0.182292 0.14584,-0.182292 h 2.24218 q 0.0911,0 0.89323,-0.05469 0.82031,-0.07292 0.98438,-0.07292 1.33072,-0.145833 1.18489,-0.145833 0.3099,0 0.3099,0.492187 0,0.03646 -0.0547,5.57812 -0.0365,5.523433 -0.0365,5.997391 0,1.71354 0.76563,2.36979 0.65624,0.583333 2.22395,0.583333 1.56771,0 4.9401,-1.494791 0.18229,0 0.18229,-0.309895 0,0 0,-9.369784 0,-2.533852 -0.74739,-2.533852 h -2.16927 q -0.21875,0 -0.21875,-0.182292 v -0.601562 q 0,-0.182291 0.14583,-0.182291 h 2.35156 q 1.11198,0 1.89583,-0.127604 1.0573,-0.145833 1.09375,-0.145833 0.25521,0 0.25521,0.528645 0,0.07292 -0.0365,5.742183 -0.0365,5.651037 -0.0365,5.942703 0,2.57031 1.67708,3.6276 0.23698,0.12761 0.23698,0.29167 z m 13.98177,-1.458335 q 0,0.273438 -0.14583,0.419271 -0.7474,0.601564 -1.95052,1.148434 -2.05989,0.96615 -3.82812,0.96615 -3.8099,0 -3.8099,-3.882812 0,-0.236979 0.0729,-4.046871 0.0729,-3.809893 0.0729,-4.010414 0,-0.236979 -0.0365,-1.567707 -0.0365,-1.348957 -0.0365,-1.421873 0,-0.382813 -0.34635,-0.546875 -0.27344,-0.145833 -1.42188,-0.63802 -0.23698,-0.109375 -0.21875,-0.419271 0,-0.236979 0.27344,-0.437499 1.82292,-1.549478 3.88281,-3.263018 0.27344,-0.182292 0.47396,-0.182292 0.29166,0 0.18229,0.528645 -0.21875,1.184895 -0.21875,2.424478 0,0.601562 0.18229,0.601562 0.16406,0 3.15364,-0.09115 2.98959,-0.109375 3.08073,-0.109375 0.38281,0 0.27344,0.382812 0,0.364583 -0.27344,1.039062 -0.0911,0.273437 -0.32812,0.273437 -0.16407,0 -2.98958,-0.01823 -2.80729,-0.01823 -2.91667,-0.01823 -0.21875,0 -0.21875,0.182291 v 10.117179 q 0,1.585936 0.45573,2.315102 0.49219,0.820312 2.7526,0.820312 1.23958,0 2.91667,-0.565104 0.72916,-0.328124 0.78385,-0.328124 0.18229,0 0.18229,0.328124 z m 20.19789,2.059895 q 0,0.14583 -0.18229,0.14583 h -7.51041 q -0.18229,0 -0.18229,-0.18229 v -0.52864 q 0,-0.25521 0.18229,-0.25521 h 1.67708 q 0.25521,0 0.3099,-0.45573 0.21875,-1.786458 0.21875,-4.32031 0,-1.531249 -0.0365,-3.080727 -0.0365,-1.549477 -0.0365,-1.440102 0,-2.351561 -0.63802,-3.281248 -0.67448,-1.020832 -2.7526,-1.020832 -2.66146,0 -4.33854,1.130207 -0.21875,0.145833 -0.21875,0.473958 0,0.05469 0.0182,3.66406 0.0182,3.591142 0.0182,3.809892 0,4.557292 0.74739,4.557292 h 2.4974 q 0.14583,0 0.14583,0.14583 v 0.63802 q 0,0.14583 -0.14583,0.14583 h -8.29427 q -0.18229,0 -0.18229,-0.14583 v -0.60156 q 0,-0.21875 0.21875,-0.21875 h 2.20573 q 0.27344,0 0.27344,-0.3099 V 80.127843 q 0,-4.265622 -0.56511,-4.265622 h -2.35156 q -0.0911,0 -0.14583,-0.01823 -0.0365,-0.03646 -0.0365,-0.200521 v -0.565103 q 0,-0.09115 0.0182,-0.127604 0.0365,-0.05469 0.20052,-0.05469 h 0.78385 q 0.91146,0 3.09896,-0.473958 1.40365,-0.565103 1.49479,-0.565103 0.29167,0 0.29167,0.601562 0,-0.164063 -0.16406,5.304683 -0.16407,5.468745 -0.16407,7.164056 0,0.492187 0.21875,0.346354 0.40104,-0.255208 1.27604,-0.874999 0.47396,-0.346354 1.36719,-0.893229 1.80469,-0.85677 3.37239,-0.85677 1.6224,0 2.86198,1.166666 1.42187,1.312499 1.42187,3.992184 0,0.145833 -0.0729,3.408851 -0.0729,3.263018 -0.0729,3.499997 0,3.91927 0.49219,3.91927 h 2.49739 q 0.18229,0 0.18229,0.18229 z m 17.31771,-8.294264 q 0,2.369789 -0.78385,4.229163 -0.91146,2.15104 -3.31771,3.500001 -1.65885,0.92968 -3.84635,0.92968 -2.47916,0 -3.51822,-0.4375 -2.22396,-0.98437 -3.35417,-3.244786 -1.11198,-2.278644 -1.11198,-4.830725 0,-2.807289 1.22136,-4.958329 1.11198,-1.93229 3.13541,-2.953123 1.56771,-0.783853 4.44791,-0.783853 2.33334,0 3.70052,0.85677 1.78646,1.130207 2.64323,3.20833 0.78385,1.914061 0.78385,4.484372 z m -2.57031,0.893228 q 0,-3.791663 -1.80468,-5.924474 -1.84115,-2.205727 -4.8125,-2.205727 -1.54948,0 -2.11458,0.255208 -0.38281,0.164062 -0.875,0.85677 -1.07552,1.567707 -1.07552,4.666663 0,3.226559 1.14844,5.906245 0.80208,1.841144 2.13281,2.643231 1.16666,0.71093 2.58854,0.71093 1.64062,0 2.53385,-0.51041 1.07552,-0.638024 1.75,-2.44271 0.52864,-1.367186 0.52864,-3.955726 z m 17.026,-7.492181 q -0.20052,1.184895 -0.5651,2.278644 -0.0911,0.291666 -0.25521,0.291666 -0.20052,0 -0.32812,-0.182291 -0.47396,-0.674479 -0.83854,-0.929687 -0.71094,-0.565104 -1.82292,-0.565104 -2.05989,0 -3.09895,0.893229 -0.1823,0.164062 -0.1823,0.492187 0,0.109375 -0.0182,4.210934 -0.0182,4.101559 -0.0182,4.338538 0,3.244791 0.60156,3.244791 h 3.57291 q 0.23698,0 0.23698,0.25521 v 0.52864 q 0,0.18229 -0.16406,0.18229 h -9.33333 q -0.25521,0 -0.25521,-0.18229 v -0.52864 q 0,-0.25521 0.21875,-0.25521 h 2.20573 q 0.34636,0 0.34636,-0.34636 V 88.312731 q 0,-2.497393 -0.60157,-2.497393 h -2.24218 q -0.18229,0 -0.18229,-0.200521 v -0.583333 q 0,-0.20052 0.18229,-0.20052 h 2.49739 q 1.3125,0 1.67708,-0.109375 1.00261,-0.291667 1.09375,-0.291667 0.25521,0 0.25521,0.492187 0,0.127604 -0.0365,1.093749 -0.0365,0.947916 -0.0365,1.057291 0,0.528646 0.21875,0.309896 0.83855,-0.729166 1.91407,-1.604166 1.33072,-0.984374 2.60676,-0.984374 1.47656,0 2.27865,1.239583 0.16406,0.255208 0.0729,0.528645 z"
       id="path7" />
    <path
       style="font-weight:bold;font-size:63.9999px;font-family:Serif;-inkscape-font-specification:'Serif Bold'"
       d="m 697.09415,155.79879 v 13.12498 q 0,3.24999 0.34375,4.06249 0.375,0.8125 1.40625,1.4375 1.0625,0.59375 2.84374,0.59375 h 1.40625 v 1.15625 h -22.15621 v -1.15625 h 1.40624 q 1.84375,0 2.96875,-0.65625 0.8125,-0.4375 1.25,-1.5 0.34375,-0.75 0.34375,-3.93749 v -27.87496 q 0,-3.24999 -0.34375,-4.06249 -0.34375,-0.8125 -1.40625,-1.40625 -1.03125,-0.625 -2.8125,-0.625 h -1.40624 v -1.15625 h 22.15621 v 1.15625 h -1.40625 q -1.84374,0 -2.96874,0.65625 -0.8125,0.4375 -1.28125,1.5 -0.34375,0.75 -0.34375,3.93749 v 11.99998 h 14.96873 v -11.99998 q 0,-3.24999 -0.34375,-4.06249 -0.34375,-0.8125 -1.40625,-1.40625 -1.0625,-0.625 -2.84375,-0.625 h -1.37499 v -1.15625 h 22.12496 v 1.15625 h -1.375 q -1.87499,0 -2.96874,0.65625 -0.8125,0.4375 -1.28125,1.5 -0.34375,0.75 -0.34375,3.93749 v 27.87496 q 0,3.24999 0.34375,4.06249 0.34375,0.8125 1.40625,1.4375 1.0625,0.59375 2.84374,0.59375 h 1.375 v 1.15625 h -22.12496 v -1.15625 h 1.37499 q 1.875,0 2.96875,-0.65625 0.8125,-0.4375 1.28125,-1.5 0.34375,-0.75 0.34375,-3.93749 v -13.12498 z m 40.2812,10.74998 q 2.1875,0 3.6875,1.53125 1.53125,1.53125 1.53125,3.68749 0,2.15625 -1.53125,3.6875 -1.53125,1.5 -3.6875,1.5 -2.15624,0 -3.68749,-1.5 -1.5,-1.53125 -1.5,-3.6875 0,-2.15624 1.5,-3.68749 1.53125,-1.53125 3.68749,-1.53125 z m 66.71864,-33.71869 v 14.68747 h -1.21875 q -1.375,-5.74999 -5.12499,-8.81248 -3.75,-3.0625 -8.49999,-3.0625 -3.96874,0 -7.28124,2.28125 -3.31249,2.28124 -4.84374,5.96874 -1.96875,4.71874 -1.96875,10.49998 0,5.68749 1.4375,10.37499 1.4375,4.65624 4.49999,7.06248 3.0625,2.375 7.93749,2.375 4,0 7.31249,-1.75 3.34375,-1.74999 7.03124,-6.03124 v 3.65625 q -3.56249,3.71874 -7.43749,5.40624 -3.84374,1.65625 -8.99998,1.65625 -6.78124,0 -12.06249,-2.71875 -5.24999,-2.71875 -8.12498,-7.81249 -2.84375,-5.09374 -2.84375,-10.84373 0,-6.06249 3.15625,-11.49998 3.18749,-5.43749 8.56248,-8.43749 5.40624,-2.99999 11.46874,-2.99999 4.46874,0 9.43748,1.93749 2.875,1.125 3.65625,1.125 0.99999,0 1.71874,-0.71875 0.75,-0.75 0.96875,-2.34374 z m 33.87496,14.12497 v 22.87497 q 0,3.34374 0.625,4.18749 0.625,0.8125 2.53124,1.03125 v 1.125 h -11.90623 v -3.90625 q -2.09375,2.5 -4.18749,3.65625 -2.09375,1.125 -4.6875,1.125 -2.46874,0 -4.40624,-1.5 -1.90625,-1.53125 -2.56249,-3.5625 -0.65625,-2.03124 -0.65625,-7.09373 v -11.59374 q 0,-3.31249 -0.625,-4.12499 -0.59375,-0.8125 -2.53125,-1.0625 v -1.15625 h 11.90623 v 19.96872 q 0,3.125 0.28125,4.03125 0.3125,0.90624 0.9375,1.37499 0.65625,0.46875 1.5,0.46875 1.125,0 2.03125,-0.59375 1.24999,-0.81249 2.99999,-3.28124 v -15.62498 q 0,-3.31249 -0.625,-4.12499 -0.59375,-0.8125 -2.53124,-1.0625 v -1.15625 z m 19.49996,0 v 6.62499 q 2.90625,-4.53124 5.09374,-5.99999 2.1875,-1.5 4.21875,-1.5 1.74999,0 2.78124,1.09375 1.0625,1.0625 1.0625,3.03125 0,2.09374 -1.03125,3.24999 -1,1.15625 -2.43749,1.15625 -1.65625,0 -2.875,-1.0625 -1.21875,-1.0625 -1.4375,-1.1875 -0.3125,-0.18749 -0.71875,-0.18749 -0.90624,0 -1.71874,0.68749 -1.28125,1.0625 -1.9375,3.03125 -1,3.03124 -1,6.68749 v 6.71874 l 0.0312,1.75 q 0,1.78124 0.21875,2.28124 0.375,0.84375 1.09375,1.25 0.75,0.375 2.5,0.46875 v 1.125 h -15.78123 v -1.125 q 1.90625,-0.15625 2.5625,-1.03125 0.68749,-0.90625 0.68749,-4.71874 v -16.15623 q 0,-2.49999 -0.25,-3.18749 -0.31249,-0.875 -0.90624,-1.28125 -0.59375,-0.40625 -2.09375,-0.5625 v -1.15625 z m 27.87494,-10.68748 v 10.68748 h 6.93749 v 3.09375 h -6.93749 v 18.03122 q 0,2.53125 0.21875,3.28125 0.25,0.71874 0.84375,1.18749 0.59375,0.4375 1.09375,0.4375 2.03124,0 3.84374,-3.09374 l 0.9375,0.6875 q -2.53125,5.99999 -8.21874,5.99999 -2.78124,0 -4.71874,-1.53125 -1.90625,-1.5625 -2.4375,-3.46874 -0.3125,-1.0625 -0.3125,-5.75 V 150.0488 h -3.81249 v -1.09375 q 3.93749,-2.78125 6.68749,-5.84374 2.78125,-3.0625 4.84374,-6.84374 z m 16.75001,-3.46874 q 2.03124,0 3.43749,1.43749 1.40625,1.40625 1.40625,3.40625 0,1.99999 -1.4375,3.40624 -1.40625,1.40625 -3.40624,1.40625 -2,0 -3.40625,-1.40625 -1.40624,-1.40625 -1.40624,-3.40624 0,-2 1.40624,-3.40625 1.40625,-1.43749 3.40625,-1.43749 z m 4.37499,14.15622 v 23.15622 q 0,3.09374 0.71875,3.96874 0.71875,0.84375 2.8125,0.96875 v 1.125 h -15.78123 v -1.125 q 1.9375,-0.0625 2.875,-1.125 0.62499,-0.71875 0.62499,-3.81249 v -17.06248 q 0,-3.09374 -0.71874,-3.93749 -0.71875,-0.875 -2.78125,-1 v -1.15625 z m 24.84368,-0.8125 0.46875,9.96874 h -1.0625 q -1.90625,-4.43749 -3.96874,-6.06249 -2.03125,-1.625 -4.0625,-1.625 -1.28125,0 -2.18749,0.875 -0.90625,0.84375 -0.90625,1.96875 0,0.84375 0.625,1.62499 0.99999,1.28125 5.59374,4.40625 4.59374,3.09374 6.03124,5.28124 1.46875,2.15625 1.46875,4.84374 0,2.4375 -1.21875,4.78124 -1.21875,2.34375 -3.4375,3.59375 -2.21874,1.25 -4.90624,1.25 -2.09375,0 -5.59374,-1.3125 -0.9375,-0.34375 -1.28125,-0.34375 -1.03125,0 -1.71875,1.5625 h -1.03124 l -0.5,-10.49999 h 1.06249 q 1.40625,4.125 3.84375,6.18749 2.46875,2.0625 4.65624,2.0625 1.5,0 2.4375,-0.90625 0.96875,-0.9375 0.96875,-2.24999 0,-1.5 -0.9375,-2.59375 -0.9375,-1.09375 -4.1875,-3.3125 -4.78124,-3.31249 -6.18749,-5.06249 -2.06249,-2.56249 -2.06249,-5.65624 0,-3.37499 2.31249,-6.09374 2.34375,-2.75 6.74999,-2.75 2.375,0 4.59375,1.15625 0.84374,0.46875 1.37499,0.46875 0.5625,0 0.90625,-0.21875 0.34375,-0.25 1.09375,-1.34375 z"
       id="path8" />
  </g>
</svg>
