<?xml version="1.0" encoding="UTF-8" standalone="no"?>
<!-- Created with Inkscape (http://www.inkscape.org/) -->

<svg
   width="61.956646pc"
   height="1.6007837pc"
   viewBox="0 0 262.28313 6.7766512"
   version="1.1"
   id="svg1"
   inkscape:version="1.3.2 (091e20e, 2023-11-25, custom)"
   sodipodi:docname="Separator2.svg"
   xmlns:inkscape="http://www.inkscape.org/namespaces/inkscape"
   xmlns:sodipodi="http://sodipodi.sourceforge.net/DTD/sodipodi-0.dtd"
   xmlns="http://www.w3.org/2000/svg"
   xmlns:svg="http://www.w3.org/2000/svg">
  <sodipodi:namedview
     id="namedview1"
     pagecolor="#ffffff"
     bordercolor="#000000"
     borderopacity="0.25"
     inkscape:showpageshadow="2"
     inkscape:pageopacity="0.0"
     inkscape:pagecheckerboard="0"
     inkscape:deskcolor="#d1d1d1"
     inkscape:document-units="pc"
     inkscape:zoom="1.4778115"
     inkscape:cx="452.01977"
     inkscape:cy="-102.51646"
     inkscape:window-width="2560"
     inkscape:window-height="1369"
     inkscape:window-x="-8"
     inkscape:window-y="-8"
     inkscape:window-maximized="1"
     inkscape:current-layer="layer1"
     inkscape:clip-to-page="false" />
  <defs
     id="defs1">
    <inkscape:path-effect
       effect="spiro"
       id="path-effect8"
       is_visible="true"
       lpeversion="1" />
    <inkscape:path-effect
       effect="spiro"
       id="path-effect7"
       is_visible="true"
       lpeversion="1" />
    <inkscape:path-effect
       effect="spiro"
       id="path-effect6"
       is_visible="true"
       lpeversion="1" />
    <inkscape:path-effect
       effect="bspline"
       id="path-effect3"
       is_visible="true"
       lpeversion="1.3"
       weight="33.333333"
       steps="2"
       helper_size="0"
       apply_no_weight="true"
       apply_with_weight="true"
       only_selected="false"
       uniform="false" />
    <inkscape:path-effect
       effect="bspline"
       id="path-effect3-9"
       is_visible="true"
       lpeversion="1.3"
       weight="33.333333"
       steps="2"
       helper_size="0"
       apply_no_weight="true"
       apply_with_weight="true"
       only_selected="false"
       uniform="false" />
    <inkscape:path-effect
       effect="spiro"
       id="path-effect8-3"
       is_visible="true"
       lpeversion="1" />
    <inkscape:path-effect
       effect="spiro"
       id="path-effect8-3-8"
       is_visible="true"
       lpeversion="1" />
  </defs>
  <g
     inkscape:label="Layer 1"
     inkscape:groupmode="layer"
     id="layer1"
     transform="translate(-1.1857244,-1.5578171)">
    <ellipse
       style="opacity:1;vector-effect:non-scaling-stroke;fill:#c5a645;fill-opacity:1;stroke:none;stroke-width:0.213386;stroke-linecap:round;stroke-linejoin:round;-inkscape-stroke:hairline"
       id="path1"
       cx="121.92537"
       cy="4.9684682"
       rx="2.059649"
       ry="3.3177524" />
    <ellipse
       style="vector-effect:non-scaling-stroke;fill:#ffffff;fill-opacity:1;stroke:none;stroke-width:0.0307287;stroke-linecap:round;stroke-linejoin:round;-inkscape-stroke:hairline"
       id="path1-7"
       cx="121.81926"
       cy="2.3520012"
       rx="0.29510322"
       ry="0.48020092" />
    <ellipse
       style="vector-effect:non-scaling-stroke;fill:#ffffff;fill-opacity:1;stroke:none;stroke-width:0.0307287;stroke-linecap:round;stroke-linejoin:round;-inkscape-stroke:hairline"
       id="path1-7-7"
       cx="120.96709"
       cy="3.08779"
       rx="0.29510322"
       ry="0.48020092" />
    <ellipse
       style="vector-effect:non-scaling-stroke;fill:#ffffff;fill-opacity:1;stroke:none;stroke-width:0.0307287;stroke-linecap:round;stroke-linejoin:round;-inkscape-stroke:hairline"
       id="path1-7-7-7"
       cx="122.75013"
       cy="3.1081972"
       rx="0.29510322"
       ry="0.48020092" />
    <ellipse
       style="vector-effect:non-scaling-stroke;fill:#ffffff;fill-opacity:1;stroke:none;stroke-width:0.0307287;stroke-linecap:round;stroke-linejoin:round;-inkscape-stroke:hairline"
       id="path1-7-7-7-0"
       cx="121.8243"
       cy="3.7219446"
       rx="0.29510322"
       ry="0.48020092" />
    <ellipse
       style="vector-effect:non-scaling-stroke;fill:#ffffff;fill-opacity:1;stroke:none;stroke-width:0.0307287;stroke-linecap:round;stroke-linejoin:round;-inkscape-stroke:hairline"
       id="path1-7-7-7-0-7"
       cx="121.8243"
       cy="4.9630456"
       rx="0.29510322"
       ry="0.48020092" />
    <ellipse
       style="vector-effect:non-scaling-stroke;fill:#ffffff;fill-opacity:1;stroke:none;stroke-width:0.0307287;stroke-linecap:round;stroke-linejoin:round;-inkscape-stroke:hairline"
       id="path1-7-7-7-0-7-9"
       cx="121.82827"
       cy="6.228085"
       rx="0.29510322"
       ry="0.48020092" />
    <ellipse
       style="vector-effect:non-scaling-stroke;fill:#ffffff;fill-opacity:1;stroke:none;stroke-width:0.0307287;stroke-linecap:round;stroke-linejoin:round;-inkscape-stroke:hairline"
       id="path1-7-7-7-0-7-9-5"
       cx="121.80589"
       cy="7.4931221"
       rx="0.29510322"
       ry="0.48020092" />
    <path
       style="opacity:1;fill:#92761d;fill-opacity:1;stroke:#c5a645;stroke-width:2.0719;stroke-linecap:round;stroke-linejoin:round;stroke-dasharray:none;stroke-opacity:1"
       d="m 131.21455,4.9393658 14.11293,-0.014551"
       id="path2" />
    <path
       style="opacity:1;fill:none;stroke:#c5a645;stroke-width:0.36456;stroke-linecap:round;stroke-linejoin:round;stroke-dasharray:none;stroke-opacity:1"
       d="m 101.80506,1.5665761 c 2.08131,0.01492 4.16262,0.029839 5.48303,0.8653628 1.3204,0.8355235 1.87988,2.4915856 2.43937,4.1476802"
       id="path3"
       inkscape:path-effect="#path-effect3"
       inkscape:original-d="m 101.80506,1.5665761 c 2.08131,0.01492 4.16262,0.02984 6.24393,0.044759 0.5595,1.6561277 1.11898,3.3121894 1.67847,4.968284"
       transform="matrix(1.0257444,0,0,0.6356461,17.566688,0.71326813)" />
    <path
       style="opacity:1;fill:none;stroke:#c5a645;stroke-width:0.36456;stroke-linecap:round;stroke-linejoin:round;stroke-dasharray:none;stroke-opacity:1"
       d="m 101.80506,1.5665761 c 2.08131,0.01492 4.16262,0.029839 5.48303,0.8653628 1.3204,0.8355235 1.87988,2.4915856 2.43937,4.1476802"
       id="path3-6"
       inkscape:path-effect="#path-effect3-9"
       inkscape:original-d="m 101.80506,1.5665761 c 2.08131,0.01492 4.16262,0.02984 6.24393,0.044759 0.5595,1.6561277 1.11898,3.3121894 1.67847,4.968284"
       transform="matrix(1.0257444,0,0,-0.6356461,17.590228,9.2165341)" />
    <ellipse
       style="vector-effect:non-scaling-stroke;fill:#ffffff;fill-opacity:1;stroke:none;stroke-width:0.0307287;stroke-linecap:round;stroke-linejoin:round;-inkscape-stroke:hairline"
       id="path1-7-7-7-0-7-9-6"
       cx="120.58159"
       cy="4.3734488"
       rx="0.29510322"
       ry="0.48020092" />
    <ellipse
       style="vector-effect:non-scaling-stroke;fill:#ffffff;fill-opacity:1;stroke:none;stroke-width:0.0307287;stroke-linecap:round;stroke-linejoin:round;-inkscape-stroke:hairline"
       id="path1-7-7-7-0-7-9-56"
       cx="123.08237"
       cy="4.3817592"
       rx="0.29510322"
       ry="0.48020092" />
    <ellipse
       style="vector-effect:non-scaling-stroke;fill:#ffffff;fill-opacity:1;stroke:none;stroke-width:0.0307287;stroke-linecap:round;stroke-linejoin:round;-inkscape-stroke:hairline"
       id="path1-7-7-7-0-7-9-9"
       cx="120.57804"
       cy="5.6451182"
       rx="0.29510322"
       ry="0.48020092" />
    <ellipse
       style="vector-effect:non-scaling-stroke;fill:#ffffff;fill-opacity:1;stroke:none;stroke-width:0.0307287;stroke-linecap:round;stroke-linejoin:round;-inkscape-stroke:hairline"
       id="path1-7-7-7-0-7-9-1"
       cx="123.00867"
       cy="5.7024207"
       rx="0.29510322"
       ry="0.48020092" />
    <ellipse
       style="vector-effect:non-scaling-stroke;fill:#ffffff;fill-opacity:1;stroke:none;stroke-width:0.0307287;stroke-linecap:round;stroke-linejoin:round;-inkscape-stroke:hairline"
       id="path1-7-7-7-0-7-9-8"
       cx="120.90244"
       cy="6.826335"
       rx="0.29510322"
       ry="0.48020092" />
    <ellipse
       style="vector-effect:non-scaling-stroke;fill:#ffffff;fill-opacity:1;stroke:none;stroke-width:0.0307287;stroke-linecap:round;stroke-linejoin:round;-inkscape-stroke:hairline"
       id="path1-7-7-7-0-7-9-4"
       cx="122.7422"
       cy="6.934998"
       rx="0.29510322"
       ry="0.48020092" />
    <path
       sodipodi:type="spiral"
       style="fill:none;fill-rule:evenodd;stroke:#c5a645;stroke-width:0.565;stroke-dasharray:none;stroke-opacity:1"
       id="path7-8"
       sodipodi:cx="8.608696"
       sodipodi:cy="-8.3554983"
       sodipodi:expansion="1"
       sodipodi:revolution="3"
       sodipodi:radius="2.5602953"
       sodipodi:argument="-20.271461"
       sodipodi:t0="0"
       d="m 8.608696,-8.3554983 c 0.019042,-0.1269489 0.1805194,-0.036963 0.2109974,0.03165 0.082593,0.1859371 -0.1030157,0.3628305 -0.274297,0.390345 -0.306382,0.049217 -0.5523475,-0.2292341 -0.5696926,-0.5169442 -0.025455,-0.4222261 0.3564254,-0.7454357 0.7595913,-0.7490402 0.5373567,-0.0048 0.9399227,0.4838653 0.9283879,1.0022385 -0.014515,0.6523198 -0.6113999,1.1351083 -1.2448857,1.1077355 -0.7672362,-0.033152 -1.3306939,-0.7389832 -1.2870831,-1.4875329 0.051394,-0.8821399 0.866596,-1.5265302 1.7301801,-1.4664312 0.9970419,0.069387 1.7225327,0.9942291 1.6457787,1.9728278 -0.08721,1.1119459 -1.1218758,1.9186529 -2.2154749,1.8251259 C 7.0653452,-6.3504474 6.17734,-7.4950568 6.2877246,-8.703646 c 0.1225478,-1.341763 1.3771977,-2.311127 2.7007688,-2.183821"
       transform="matrix(-1.5581471,0,0,-1.2602713,272.80744,-5.8765621)" />
    <path
       sodipodi:type="spiral"
       style="fill:none;fill-rule:evenodd;stroke:#c5a645;stroke-width:0.565;stroke-dasharray:none;stroke-opacity:1"
       id="path7-8-2"
       sodipodi:cx="8.608696"
       sodipodi:cy="-8.3554983"
       sodipodi:expansion="1"
       sodipodi:revolution="3"
       sodipodi:radius="2.5602953"
       sodipodi:argument="-20.271461"
       sodipodi:t0="0"
       d="m 8.608696,-8.3554983 c 0.019042,-0.1269489 0.1805194,-0.036963 0.2109974,0.03165 0.082593,0.1859371 -0.1030157,0.3628305 -0.274297,0.390345 -0.306382,0.049217 -0.5523475,-0.2292341 -0.5696926,-0.5169442 -0.025455,-0.4222261 0.3564254,-0.7454357 0.7595913,-0.7490402 0.5373567,-0.0048 0.9399227,0.4838653 0.9283879,1.0022385 -0.014515,0.6523198 -0.6113999,1.1351083 -1.2448857,1.1077355 -0.7672362,-0.033152 -1.3306939,-0.7389832 -1.2870831,-1.4875329 0.051394,-0.8821399 0.866596,-1.5265302 1.7301801,-1.4664312 0.9970419,0.069387 1.7225327,0.9942291 1.6457787,1.9728278 -0.08721,1.1119459 -1.1218758,1.9186529 -2.2154749,1.8251259 C 7.0653452,-6.3504474 6.17734,-7.4950568 6.2877246,-8.703646 c 0.1225478,-1.341763 1.3771977,-2.311127 2.7007688,-2.183821"
       transform="matrix(1.5581471,0,0,1.2602713,141.21298,15.907503)" />
    <path
       style="fill:none;fill-opacity:1;stroke:#c5a645;stroke-width:0.565;stroke-linecap:round;stroke-linejoin:round;stroke-dasharray:none;stroke-opacity:1"
       d="m 9.4442157,-4.6997281 c 0.5818693,0.014993 1.1637403,0.029913 1.7456133,0.044759 16.088891,0.4104946 32.183786,0.76486 48.248149,1.7432041 15.843098,0.9648688 31.665377,2.53687495 47.537722,2.59526853 0.61189,0.002251 1.22379,0.002251 1.83568,0"
       id="path8-5"
       inkscape:path-effect="#path-effect8-3"
       inkscape:original-d="m 9.4442157,-4.6997281 c 0.6117103,0.01492 1.1786623,0.029839 1.7456133,0.044759 0.566951,0.01492 32.144333,1.162136 48.248149,1.7432041 16.103817,0.5810681 31.691815,1.7723785 47.537722,2.59526853 15.84591,0.82289004 1.24489,-0.0421995 1.83568,0"
       transform="matrix(1.0457042,0,0,1.2944697,145.0466,8.2592223)" />
    <path
       sodipodi:type="spiral"
       style="fill:none;fill-rule:evenodd;stroke:#c5a645;stroke-width:0.565;stroke-dasharray:none;stroke-opacity:1"
       id="path7-8-7"
       sodipodi:cx="8.608696"
       sodipodi:cy="-8.3554983"
       sodipodi:expansion="1"
       sodipodi:revolution="3"
       sodipodi:radius="2.5602953"
       sodipodi:argument="-20.271461"
       sodipodi:t0="0"
       d="m 8.608696,-8.3554983 c 0.019042,-0.1269489 0.1805194,-0.036963 0.2109974,0.03165 0.082593,0.1859371 -0.1030157,0.3628305 -0.274297,0.390345 -0.306382,0.049217 -0.5523475,-0.2292341 -0.5696926,-0.5169442 -0.025455,-0.4222261 0.3564254,-0.7454357 0.7595913,-0.7490402 0.5373567,-0.0048 0.9399227,0.4838653 0.9283879,1.0022385 -0.014515,0.6523198 -0.6113999,1.1351083 -1.2448857,1.1077355 -0.7672362,-0.033152 -1.3306939,-0.7389832 -1.2870831,-1.4875329 0.051394,-0.8821399 0.866596,-1.5265302 1.7301801,-1.4664312 0.9970419,0.069387 1.7225327,0.9942291 1.6457787,1.9728278 -0.08721,1.1119459 -1.1218758,1.9186529 -2.2154749,1.8251259 C 7.0653452,-6.3504474 6.17734,-7.4950568 6.2877246,-8.703646 c 0.1225478,-1.341763 1.3771977,-2.311127 2.7007688,-2.183821"
       transform="matrix(1.5581791,0,0,-1.2529252,-8.1541942,-5.9069679)" />
    <path
       sodipodi:type="spiral"
       style="fill:none;fill-rule:evenodd;stroke:#c5a645;stroke-width:0.565;stroke-dasharray:none;stroke-opacity:1"
       id="path7-8-2-2"
       sodipodi:cx="8.608696"
       sodipodi:cy="-8.3554983"
       sodipodi:expansion="1"
       sodipodi:revolution="3"
       sodipodi:radius="2.5602953"
       sodipodi:argument="-20.271461"
       sodipodi:t0="0"
       d="m 8.608696,-8.3554983 c 0.019042,-0.1269489 0.1805194,-0.036963 0.2109974,0.03165 0.082593,0.1859371 -0.1030157,0.3628305 -0.274297,0.390345 -0.306382,0.049217 -0.5523475,-0.2292341 -0.5696926,-0.5169442 -0.025455,-0.4222261 0.3564254,-0.7454357 0.7595913,-0.7490402 0.5373567,-0.0048 0.9399227,0.4838653 0.9283879,1.0022385 -0.014515,0.6523198 -0.6113999,1.1351083 -1.2448857,1.1077355 -0.7672362,-0.033152 -1.3306939,-0.7389832 -1.2870831,-1.4875329 0.051394,-0.8821399 0.866596,-1.5265302 1.7301801,-1.4664312 0.9970419,0.069387 1.7225327,0.9942291 1.6457787,1.9728278 -0.08721,1.1119459 -1.1218758,1.9186529 -2.2154749,1.8251259 C 7.0653452,-6.3504474 6.17734,-7.4950568 6.2877246,-8.703646 c 0.1225478,-1.341763 1.3771977,-2.311127 2.7007688,-2.183821"
       transform="matrix(-1.5581791,0,0,1.2529252,123.44295,15.750118)" />
    <path
       style="fill:none;fill-opacity:1;stroke:#c5a645;stroke-width:0.565;stroke-linecap:round;stroke-linejoin:round;stroke-dasharray:none;stroke-opacity:1"
       d="m 9.4442157,-4.6997281 c 0.5818693,0.014993 1.1637403,0.029913 1.7456133,0.044759 16.088891,0.4104946 32.183786,0.76486 48.248149,1.7432041 15.843098,0.9648688 31.665377,2.53687495 47.537722,2.59526853 0.61189,0.002251 1.22379,0.002251 1.83568,0"
       id="path8-5-2"
       inkscape:path-effect="#path-effect8-3-8"
       inkscape:original-d="m 9.4442157,-4.6997281 c 0.6117103,0.01492 1.1786623,0.029839 1.7456133,0.044759 0.566951,0.01492 32.144333,1.162136 48.248149,1.7432041 16.103817,0.5810681 31.691815,1.7723785 47.537722,2.59526853 15.84591,0.82289004 1.24489,-0.0421995 1.83568,0"
       transform="matrix(-1.0457257,0,0,1.2869242,119.60926,8.146419)" />
  </g>
</svg>
